<?xml version="1.0" encoding="utf-8"?>
<!-- Generator: Adobe Illustrator 23.0.3, SVG Export Plug-In . SVG Version: 6.00 Build 0)  -->
<svg version="1.1" id="Layer_1" xmlns="http://www.w3.org/2000/svg" xmlns:xlink="http://www.w3.org/1999/xlink" x="0px" y="0px"
	 viewBox="0 0 1121 851.8" style="enable-background:new 0 0 1121 851.8;" xml:space="preserve">
<style type="text/css">
	.st0{opacity:0.3;fill:#121212;}
	.st1{fill:#E09400;}
	.st2{fill:#FFBB25;}
	.st3{fill:#FFD46D;}
	.st4{fill:#C32141;}
	.st5{fill:#F43045;}
	.st6{fill:#FF4B67;}
	.st7{fill:#B5142E;}
	.st8{fill:#00A2D5;}
	.st9{fill:#0086B9;}
	.st10{fill:#32CCF5;}
	.st11{fill:#368700;}
	.st12{fill:#4BAB13;}
	.st13{fill:#90DD5F;}
	.st14{fill:#E6D7DA;}
	.st15{fill:#FAEDEF;}
	.st16{fill:#FFFFFF;}
</style>
<title>interaction design</title>
<g>
</g>
<g>
	<polygon class="st0" points="591.4,817.4 700.7,801.5 684,782.4 555.9,769.7 	"/>
	<g>
		<polygon class="st1" points="641.2,787.9 591.4,817.4 591.4,755.6 641.2,726.1 		"/>
		<polygon class="st2" points="591.4,817.4 494.4,786.5 494.4,724.7 591.4,755.6 		"/>
		<polygon class="st3" points="591.4,755.6 494.4,724.7 544.3,695.2 641.2,726.1 		"/>
	</g>
	<g>
		<rect x="516.3" y="716.2" class="st1" width="28.3" height="8.5"/>
		<g>
			<path class="st1" d="M544.6,724.7c0,3.5-6.3,6.4-14.2,6.4c-7.8,0-14.2-2.8-14.2-6.4s6.3-6.4,14.2-6.4
				C538.2,718.4,544.6,721.2,544.6,724.7z"/>
			<path class="st3" d="M544.6,716.2c0,3.5-6.3,6.4-14.2,6.4c-7.8,0-14.2-2.8-14.2-6.4c0-3.5,6.3-6.4,14.2-6.4
				C538.2,709.9,544.6,712.7,544.6,716.2z"/>
		</g>
	</g>
	<g>
		<rect x="541.7" y="700.3" class="st1" width="28.3" height="8.5"/>
		<g>
			<path class="st1" d="M570,708.8c0,3.5-6.3,6.4-14.2,6.4c-7.8,0-14.2-2.8-14.2-6.4c0-3.5,6.3-6.4,14.2-6.4
				C563.7,702.5,570,705.3,570,708.8z"/>
			<path class="st3" d="M570,700.3c0,3.5-6.3,6.4-14.2,6.4c-7.8,0-14.2-2.8-14.2-6.4s6.3-6.4,14.2-6.4
				C563.7,694,570,696.8,570,700.3z"/>
		</g>
	</g>
	<g>
		<rect x="568" y="733.1" class="st1" width="28.3" height="8.5"/>
		<g>
			<path class="st1" d="M596.3,741.7c0,3.5-6.3,6.4-14.2,6.4c-7.8,0-14.2-2.8-14.2-6.4c0-3.5,6.3-6.4,14.2-6.4
				C590,735.3,596.3,738.1,596.3,741.7z"/>
			<path class="st3" d="M596.3,733.1c0,3.5-6.3,6.4-14.2,6.4c-7.8,0-14.2-2.8-14.2-6.4c0-3.5,6.3-6.4,14.2-6.4
				C590,726.8,596.3,729.6,596.3,733.1z"/>
		</g>
	</g>
	<g>
		<rect x="592.5" y="718.3" class="st1" width="28.3" height="8.5"/>
		<g>
			<path class="st1" d="M620.8,726.8c0,3.5-6.3,6.4-14.2,6.4c-7.8,0-14.2-2.8-14.2-6.4s6.3-6.4,14.2-6.4
				C614.5,720.5,620.8,723.3,620.8,726.8z"/>
			<path class="st3" d="M620.8,718.3c0,3.5-6.3,6.4-14.2,6.4c-7.8,0-14.2-2.8-14.2-6.4s6.3-6.4,14.2-6.4
				C614.5,712,620.8,714.8,620.8,718.3z"/>
		</g>
	</g>
</g>
<g>
	<polygon class="st0" points="74.4,726.1 215.5,771.1 286.1,737.9 221.2,727.4 	"/>
	<g>
		<polygon class="st4" points="221.2,727.4 171.3,757 171.3,695.2 221.2,665.7 		"/>
		<polygon class="st5" points="171.3,757 74.4,726.1 74.4,664.3 171.3,695.2 		"/>
		<polygon class="st6" points="171.3,695.2 74.4,664.3 124.3,634.8 221.2,665.7 		"/>
	</g>
	<g>
		<rect x="96.2" y="655.8" class="st7" width="28.3" height="8.5"/>
		<g>
			<path class="st7" d="M124.5,664.3c0,3.5-6.3,6.4-14.2,6.4s-14.2-2.8-14.2-6.4c0-3.5,6.3-6.4,14.2-6.4S124.5,660.8,124.5,664.3z"
				/>
			<path class="st6" d="M124.5,655.8c0,3.5-6.3,6.4-14.2,6.4s-14.2-2.8-14.2-6.4c0-3.5,6.3-6.4,14.2-6.4S124.5,652.3,124.5,655.8z"
				/>
		</g>
	</g>
	<g>
		<rect x="121.7" y="639.9" class="st7" width="28.3" height="8.5"/>
		<g>
			<path class="st7" d="M150,648.4c0,3.5-6.3,6.4-14.2,6.4c-7.8,0-14.2-2.8-14.2-6.4c0-3.5,6.3-6.4,14.2-6.4
				C143.6,642,150,644.9,150,648.4z"/>
			<path class="st6" d="M150,639.9c0,3.5-6.3,6.4-14.2,6.4c-7.8,0-14.2-2.8-14.2-6.4c0-3.5,6.3-6.4,14.2-6.4
				C143.6,633.5,150,636.3,150,639.9z"/>
		</g>
	</g>
	<g>
		<rect x="147.9" y="672.7" class="st7" width="28.3" height="8.5"/>
		<g>
			<path class="st7" d="M176.2,681.2c0,3.5-6.3,6.4-14.2,6.4c-7.8,0-14.2-2.8-14.2-6.4c0-3.5,6.3-6.4,14.2-6.4
				C169.9,674.9,176.2,677.7,176.2,681.2z"/>
			<path class="st6" d="M176.2,672.7c0,3.5-6.3,6.4-14.2,6.4c-7.8,0-14.2-2.8-14.2-6.4c0-3.5,6.3-6.4,14.2-6.4
				C169.9,666.3,176.2,669.2,176.2,672.7z"/>
		</g>
	</g>
	<g>
		<rect x="172.5" y="657.9" class="st7" width="28.3" height="8.5"/>
		<g>
			<path class="st7" d="M200.8,666.4c0,3.5-6.3,6.4-14.2,6.4c-7.8,0-14.2-2.8-14.2-6.4c0-3.5,6.3-6.4,14.2-6.4
				C194.4,660,200.8,662.9,200.8,666.4z"/>
			<path class="st6" d="M200.8,657.9c0,3.5-6.3,6.4-14.2,6.4c-7.8,0-14.2-2.8-14.2-6.4c0-3.5,6.3-6.4,14.2-6.4
				C194.4,651.5,200.8,654.4,200.8,657.9z"/>
		</g>
	</g>
</g>
<g>
	<path class="st0" d="M350.9,805.4l115.8,8l-16.4,30.3l-140.3,8L350.9,805.4z"/>
	<g>
		<polygon class="st8" points="260.2,822.2 310,851.8 310,790 260.2,760.5 		"/>
		<polygon class="st9" points="310,851.8 407,820.9 407,759.1 310,790 		"/>
		<polygon class="st10" points="310,790 407,759.1 357.1,729.6 260.2,760.5 		"/>
	</g>
	<g>
		<rect x="356.9" y="750.6" class="st9" width="28.3" height="8.5"/>
		<g>
			<path class="st9" d="M356.9,759.1c0,3.5,6.3,6.4,14.2,6.4c7.8,0,14.2-2.8,14.2-6.4c0-3.5-6.3-6.4-14.2-6.4
				C363.2,752.8,356.9,755.6,356.9,759.1z"/>
			<path class="st10" d="M356.9,750.6c0,3.5,6.3,6.4,14.2,6.4c7.8,0,14.2-2.8,14.2-6.4c0-3.5-6.3-6.4-14.2-6.4
				C363.2,744.2,356.9,747.1,356.9,750.6z"/>
		</g>
	</g>
	<g>
		<rect x="331.4" y="734.7" class="st9" width="28.3" height="8.5"/>
		<g>
			<path class="st9" d="M331.4,743.2c0,3.5,6.3,6.4,14.2,6.4s14.2-2.8,14.2-6.4c0-3.5-6.3-6.4-14.2-6.4S331.4,739.7,331.4,743.2z"/>
			<path class="st10" d="M331.4,734.7c0,3.5,6.3,6.4,14.2,6.4s14.2-2.8,14.2-6.4c0-3.5-6.3-6.4-14.2-6.4S331.4,731.2,331.4,734.7z"
				/>
		</g>
	</g>
	<g>
		<rect x="305.1" y="767.5" class="st9" width="28.3" height="8.5"/>
		<g>
			<path class="st9" d="M305.1,776c0,3.5,6.3,6.4,14.2,6.4c7.8,0,14.2-2.8,14.2-6.4c0-3.5-6.3-6.4-14.2-6.4
				C311.5,769.7,305.1,772.5,305.1,776z"/>
			<path class="st10" d="M305.1,767.5c0,3.5,6.3,6.4,14.2,6.4c7.8,0,14.2-2.8,14.2-6.4c0-3.5-6.3-6.4-14.2-6.4
				C311.5,761.2,305.1,764,305.1,767.5z"/>
		</g>
	</g>
	<g>
		<rect x="280.6" y="752.7" class="st9" width="28.3" height="8.5"/>
		<g>
			<path class="st9" d="M280.6,761.2c0,3.5,6.3,6.4,14.2,6.4c7.8,0,14.2-2.8,14.2-6.4c0-3.5-6.3-6.4-14.2-6.4
				C286.9,754.9,280.6,757.7,280.6,761.2z"/>
			<path class="st10" d="M280.6,752.7c0,3.5,6.3,6.4,14.2,6.4c7.8,0,14.2-2.8,14.2-6.4c0-3.5-6.3-6.4-14.2-6.4
				C286.9,746.3,280.6,749.2,280.6,752.7z"/>
		</g>
	</g>
</g>
<g>
	<path class="st0" d="M820,789.4l115.8,8l-16.4,30.3l-140.3,8L820,789.4z"/>
	<g>
		<polygon class="st5" points="730.1,806.1 780,835.7 780,773.9 730.1,744.4 		"/>
		<polygon class="st4" points="780,835.7 876.9,804.8 876.9,743 780,773.9 		"/>
		<polygon class="st6" points="780,773.9 876.9,743 827,713.5 730.1,744.4 		"/>
	</g>
	<g>
		<rect x="826.8" y="734.5" class="st7" width="28.3" height="8.5"/>
		<g>
			<path class="st7" d="M826.8,743c0,3.5,6.3,6.4,14.2,6.4c7.8,0,14.2-2.8,14.2-6.4c0-3.5-6.3-6.4-14.2-6.4
				C833.1,736.7,826.8,739.5,826.8,743z"/>
			<path class="st6" d="M826.8,734.5c0,3.5,6.3,6.4,14.2,6.4c7.8,0,14.2-2.8,14.2-6.4s-6.3-6.4-14.2-6.4
				C833.1,728.2,826.8,731,826.8,734.5z"/>
		</g>
	</g>
	<g>
		<rect x="801.3" y="718.6" class="st7" width="28.3" height="8.5"/>
		<g>
			<path class="st7" d="M801.3,727.1c0,3.5,6.3,6.4,14.2,6.4c7.8,0,14.2-2.8,14.2-6.4c0-3.5-6.3-6.4-14.2-6.4
				C807.6,720.7,801.3,723.6,801.3,727.1z"/>
			<path class="st6" d="M801.3,718.6c0,3.5,6.3,6.4,14.2,6.4c7.8,0,14.2-2.8,14.2-6.4s-6.3-6.4-14.2-6.4
				C807.6,712.2,801.3,715.1,801.3,718.6z"/>
		</g>
	</g>
	<g>
		<rect x="775" y="751.4" class="st7" width="28.3" height="8.5"/>
		<g>
			<path class="st7" d="M775,759.9c0,3.5,6.3,6.4,14.2,6.4c7.8,0,14.2-2.8,14.2-6.4c0-3.5-6.3-6.4-14.2-6.4
				C781.4,753.6,775,756.4,775,759.9z"/>
			<path class="st6" d="M775,751.4c0,3.5,6.3,6.4,14.2,6.4c7.8,0,14.2-2.8,14.2-6.4c0-3.5-6.3-6.4-14.2-6.4
				C781.4,745.1,775,747.9,775,751.4z"/>
		</g>
	</g>
	<g>
		<rect x="750.5" y="736.6" class="st7" width="28.3" height="8.5"/>
		<g>
			<path class="st7" d="M750.5,745.1c0,3.5,6.3,6.4,14.2,6.4c7.8,0,14.2-2.8,14.2-6.4c0-3.5-6.3-6.4-14.2-6.4
				C756.8,738.8,750.5,741.6,750.5,745.1z"/>
			<path class="st6" d="M750.5,736.6c0,3.5,6.3,6.4,14.2,6.4c7.8,0,14.2-2.8,14.2-6.4c0-3.5-6.3-6.4-14.2-6.4
				C756.8,730.3,750.5,733.1,750.5,736.6z"/>
		</g>
	</g>
</g>
<g>
	<g>
		<g>
			<polygon class="st9" points="188.4,579.6 138.6,609.2 138.6,547.4 188.4,517.9 			"/>
			<polygon class="st8" points="138.6,609.2 41.6,578.3 41.6,516.5 138.6,547.4 			"/>
			<polygon class="st10" points="138.6,547.4 41.6,516.5 91.5,487 188.4,517.9 			"/>
		</g>
		<g>
			<rect x="63.5" y="508" class="st9" width="28.3" height="8.5"/>
			<g>
				<path class="st9" d="M91.8,516.5c0,3.5-6.3,6.4-14.2,6.4s-14.2-2.8-14.2-6.4c0-3.5,6.3-6.4,14.2-6.4S91.8,513,91.8,516.5z"/>
				<path class="st10" d="M91.8,508c0,3.5-6.3,6.4-14.2,6.4s-14.2-2.8-14.2-6.4s6.3-6.4,14.2-6.4S91.8,504.5,91.8,508z"/>
			</g>
		</g>
		<g>
			<rect x="88.9" y="492.1" class="st9" width="28.3" height="8.5"/>
			<g>
				<path class="st9" d="M117.2,500.6c0,3.5-6.3,6.4-14.2,6.4c-7.8,0-14.2-2.8-14.2-6.4c0-3.5,6.3-6.4,14.2-6.4
					C110.9,494.2,117.2,497.1,117.2,500.6z"/>
				<path class="st10" d="M117.2,492.1c0,3.5-6.3,6.4-14.2,6.4c-7.8,0-14.2-2.8-14.2-6.4c0-3.5,6.3-6.4,14.2-6.4
					C110.9,485.7,117.2,488.6,117.2,492.1z"/>
			</g>
		</g>
		<g>
			<rect x="115.2" y="524.9" class="st9" width="28.3" height="8.5"/>
			<g>
				<path class="st9" d="M143.5,533.4c0,3.5-6.3,6.4-14.2,6.4c-7.8,0-14.2-2.8-14.2-6.4c0-3.5,6.3-6.4,14.2-6.4
					C137.2,527.1,143.5,529.9,143.5,533.4z"/>
				<path class="st10" d="M143.5,524.9c0,3.5-6.3,6.4-14.2,6.4c-7.8,0-14.2-2.8-14.2-6.4c0-3.5,6.3-6.4,14.2-6.4
					C137.2,518.5,143.5,521.4,143.5,524.9z"/>
			</g>
		</g>
		<g>
			<rect x="139.7" y="510.1" class="st9" width="28.3" height="8.5"/>
			<g>
				<path class="st9" d="M168,518.6c0,3.5-6.3,6.4-14.2,6.4c-7.8,0-14.2-2.8-14.2-6.4c0-3.5,6.3-6.4,14.2-6.4
					C161.7,512.2,168,515.1,168,518.6z"/>
				<path class="st10" d="M168,510.1c0,3.5-6.3,6.4-14.2,6.4c-7.8,0-14.2-2.8-14.2-6.4s6.3-6.4,14.2-6.4
					C161.7,503.7,168,506.6,168,510.1z"/>
			</g>
		</g>
	</g>
	<g>
		<g>
			<polygon class="st4" points="285.4,610.6 235.5,640.1 235.5,578.3 285.4,548.8 			"/>
			<polygon class="st5" points="235.5,640.1 138.6,609.2 138.6,547.4 235.5,578.3 			"/>
			<polygon class="st6" points="235.5,578.3 138.6,547.4 188.4,517.9 285.4,548.8 			"/>
		</g>
		<g>
			<rect x="160.4" y="538.9" class="st7" width="28.3" height="8.5"/>
			<g>
				<path class="st7" d="M188.7,547.4c0,3.5-6.3,6.4-14.2,6.4c-7.8,0-14.2-2.8-14.2-6.4c0-3.5,6.3-6.4,14.2-6.4
					C182.4,541.1,188.7,543.9,188.7,547.4z"/>
				<path class="st6" d="M188.7,538.9c0,3.5-6.3,6.4-14.2,6.4c-7.8,0-14.2-2.8-14.2-6.4c0-3.5,6.3-6.4,14.2-6.4
					C182.4,532.6,188.7,535.4,188.7,538.9z"/>
			</g>
		</g>
		<g>
			<rect x="185.8" y="523" class="st7" width="28.3" height="8.5"/>
			<g>
				<path class="st7" d="M214.1,531.5c0,3.5-6.3,6.4-14.2,6.4c-7.8,0-14.2-2.8-14.2-6.4c0-3.5,6.3-6.4,14.2-6.4
					C207.8,525.2,214.1,528,214.1,531.5z"/>
				<path class="st6" d="M214.1,523c0,3.5-6.3,6.4-14.2,6.4c-7.8,0-14.2-2.8-14.2-6.4c0-3.5,6.3-6.4,14.2-6.4
					C207.8,516.7,214.1,519.5,214.1,523z"/>
			</g>
		</g>
		<g>
			<rect x="212.1" y="555.9" class="st7" width="28.3" height="8.5"/>
			<g>
				<path class="st7" d="M240.4,564.4c0,3.5-6.3,6.4-14.2,6.4c-7.8,0-14.2-2.8-14.2-6.4c0-3.5,6.3-6.4,14.2-6.4
					C234.1,558,240.4,560.9,240.4,564.4z"/>
				<path class="st6" d="M240.4,555.9c0,3.5-6.3,6.4-14.2,6.4c-7.8,0-14.2-2.8-14.2-6.4c0-3.5,6.3-6.4,14.2-6.4
					C234.1,549.5,240.4,552.3,240.4,555.9z"/>
			</g>
		</g>
		<g>
			<rect x="236.6" y="541" class="st7" width="28.3" height="8.5"/>
			<g>
				<path class="st7" d="M264.9,549.5c0,3.5-6.3,6.4-14.2,6.4c-7.8,0-14.2-2.8-14.2-6.4c0-3.5,6.3-6.4,14.2-6.4
					C258.6,543.2,264.9,546,264.9,549.5z"/>
				<path class="st6" d="M264.9,541c0,3.5-6.3,6.4-14.2,6.4c-7.8,0-14.2-2.8-14.2-6.4c0-3.5,6.3-6.4,14.2-6.4
					C258.6,534.7,264.9,537.5,264.9,541z"/>
			</g>
		</g>
	</g>
	<g>
		<g>
			<polygon class="st4" points="235.9,532.8 186,562.4 186,500.6 235.9,471.1 			"/>
			<polygon class="st5" points="186,562.4 89.1,531.5 89.1,469.7 186,500.6 			"/>
			<polygon class="st6" points="186,500.6 89.1,469.7 139,440.2 235.9,471.1 			"/>
		</g>
		<g>
			<rect x="110.9" y="461.2" class="st7" width="28.3" height="8.5"/>
			<g>
				<path class="st7" d="M139.2,469.7c0,3.5-6.3,6.4-14.2,6.4c-7.8,0-14.2-2.8-14.2-6.4s6.3-6.4,14.2-6.4
					C132.9,463.3,139.2,466.2,139.2,469.7z"/>
				<path class="st6" d="M139.2,461.2c0,3.5-6.3,6.4-14.2,6.4c-7.8,0-14.2-2.8-14.2-6.4s6.3-6.4,14.2-6.4
					C132.9,454.8,139.2,457.7,139.2,461.2z"/>
			</g>
		</g>
		<g>
			<rect x="136.4" y="445.2" class="st7" width="28.3" height="8.5"/>
			<g>
				<path class="st7" d="M164.7,453.8c0,3.5-6.3,6.4-14.2,6.4c-7.8,0-14.2-2.8-14.2-6.4s6.3-6.4,14.2-6.4
					C158.3,447.4,164.7,450.2,164.7,453.8z"/>
				<path class="st6" d="M164.7,445.2c0,3.5-6.3,6.4-14.2,6.4c-7.8,0-14.2-2.8-14.2-6.4s6.3-6.4,14.2-6.4
					C158.3,438.9,164.7,441.7,164.7,445.2z"/>
			</g>
		</g>
		<g>
			<rect x="162.6" y="478.1" class="st7" width="28.3" height="8.5"/>
			<g>
				<path class="st7" d="M190.9,486.6c0,3.5-6.3,6.4-14.2,6.4c-7.8,0-14.2-2.8-14.2-6.4c0-3.5,6.3-6.4,14.2-6.4
					C184.6,480.2,190.9,483.1,190.9,486.6z"/>
				<path class="st6" d="M190.9,478.1c0,3.5-6.3,6.4-14.2,6.4c-7.8,0-14.2-2.8-14.2-6.4c0-3.5,6.3-6.4,14.2-6.4
					C184.6,471.7,190.9,474.6,190.9,478.1z"/>
			</g>
		</g>
		<g>
			<rect x="187.2" y="463.3" class="st7" width="28.3" height="8.5"/>
			<g>
				<path class="st7" d="M215.5,471.8c0,3.5-6.3,6.4-14.2,6.4c-7.8,0-14.2-2.8-14.2-6.4s6.3-6.4,14.2-6.4
					C209.1,465.4,215.5,468.3,215.5,471.8z"/>
				<path class="st6" d="M215.5,463.3c0,3.5-6.3,6.4-14.2,6.4c-7.8,0-14.2-2.8-14.2-6.4c0-3.5,6.3-6.4,14.2-6.4
					C209.1,456.9,215.5,459.8,215.5,463.3z"/>
			</g>
		</g>
	</g>
	<g>
		<g>
			<polygon class="st1" points="235.9,472 186,501.6 186,439.8 235.9,410.3 			"/>
			<polygon class="st2" points="186,501.6 89.1,470.7 89.1,408.9 186,439.8 			"/>
			<polygon class="st3" points="186,439.8 89.1,408.9 139,379.4 235.9,410.3 			"/>
		</g>
		<g>
			<rect x="110.9" y="400.4" class="st1" width="28.3" height="8.5"/>
			<g>
				<path class="st1" d="M139.2,408.9c0,3.5-6.3,6.4-14.2,6.4c-7.8,0-14.2-2.8-14.2-6.4c0-3.5,6.3-6.4,14.2-6.4
					C132.9,402.5,139.2,405.4,139.2,408.9z"/>
				<path class="st3" d="M139.2,400.4c0,3.5-6.3,6.4-14.2,6.4c-7.8,0-14.2-2.8-14.2-6.4s6.3-6.4,14.2-6.4
					C132.9,394,139.2,396.9,139.2,400.4z"/>
			</g>
		</g>
		<g>
			<rect x="136.4" y="384.5" class="st1" width="28.3" height="8.5"/>
			<g>
				<path class="st1" d="M164.7,393c0,3.5-6.3,6.4-14.2,6.4c-7.8,0-14.2-2.8-14.2-6.4c0-3.5,6.3-6.4,14.2-6.4
					C158.3,386.6,164.7,389.5,164.7,393z"/>
				<path class="st3" d="M164.7,384.5c0,3.5-6.3,6.4-14.2,6.4c-7.8,0-14.2-2.8-14.2-6.4s6.3-6.4,14.2-6.4
					C158.3,378.1,164.7,381,164.7,384.5z"/>
			</g>
		</g>
		<g>
			<rect x="162.6" y="417.3" class="st1" width="28.3" height="8.5"/>
			<g>
				<path class="st1" d="M190.9,425.8c0,3.5-6.3,6.4-14.2,6.4c-7.8,0-14.2-2.8-14.2-6.4c0-3.5,6.3-6.4,14.2-6.4
					C184.6,419.5,190.9,422.3,190.9,425.8z"/>
				<path class="st3" d="M190.9,417.3c0,3.5-6.3,6.4-14.2,6.4c-7.8,0-14.2-2.8-14.2-6.4c0-3.5,6.3-6.4,14.2-6.4
					C184.6,411,190.9,413.8,190.9,417.3z"/>
			</g>
		</g>
		<g>
			<rect x="187.2" y="402.5" class="st1" width="28.3" height="8.5"/>
			<g>
				<path class="st1" d="M215.5,411c0,3.5-6.3,6.4-14.2,6.4c-7.8,0-14.2-2.8-14.2-6.4s6.3-6.4,14.2-6.4
					C209.1,404.6,215.5,407.5,215.5,411z"/>
				<path class="st3" d="M215.5,402.5c0,3.5-6.3,6.4-14.2,6.4c-7.8,0-14.2-2.8-14.2-6.4s6.3-6.4,14.2-6.4
					C209.1,396.1,215.5,399,215.5,402.5z"/>
			</g>
		</g>
	</g>
	<g>
		<g>
			<polygon class="st9" points="236,410.4 186.1,439.9 186.1,378.1 236,348.6 			"/>
			<polygon class="st8" points="186.1,439.9 89.2,409 89.2,347.2 186.1,378.1 			"/>
			<polygon class="st10" points="186.1,378.1 89.2,347.2 139,317.7 236,348.6 			"/>
		</g>
		<g>
			<rect x="111" y="338.7" class="st9" width="28.3" height="8.5"/>
			<g>
				<path class="st9" d="M139.3,347.2c0,3.5-6.3,6.4-14.2,6.4c-7.8,0-14.2-2.8-14.2-6.4s6.3-6.4,14.2-6.4
					C132.9,340.9,139.3,343.7,139.3,347.2z"/>
				<path class="st10" d="M139.3,338.7c0,3.5-6.3,6.4-14.2,6.4c-7.8,0-14.2-2.8-14.2-6.4s6.3-6.4,14.2-6.4
					C132.9,332.4,139.3,335.2,139.3,338.7z"/>
			</g>
		</g>
		<g>
			<rect x="136.4" y="322.8" class="st9" width="28.3" height="8.5"/>
			<g>
				<path class="st9" d="M164.7,331.3c0,3.5-6.3,6.4-14.2,6.4c-7.8,0-14.2-2.8-14.2-6.4c0-3.5,6.3-6.4,14.2-6.4
					C158.4,325,164.7,327.8,164.7,331.3z"/>
				<path class="st10" d="M164.7,322.8c0,3.5-6.3,6.4-14.2,6.4c-7.8,0-14.2-2.8-14.2-6.4c0-3.5,6.3-6.4,14.2-6.4
					C158.4,316.5,164.7,319.3,164.7,322.8z"/>
			</g>
		</g>
		<g>
			<rect x="162.7" y="355.7" class="st9" width="28.3" height="8.5"/>
			<g>
				<path class="st9" d="M191,364.2c0,3.5-6.3,6.4-14.2,6.4c-7.8,0-14.2-2.8-14.2-6.4c0-3.5,6.3-6.4,14.2-6.4
					C184.7,357.8,191,360.7,191,364.2z"/>
				<path class="st10" d="M191,355.7c0,3.5-6.3,6.4-14.2,6.4c-7.8,0-14.2-2.8-14.2-6.4c0-3.5,6.3-6.4,14.2-6.4
					C184.7,349.3,191,352.1,191,355.7z"/>
			</g>
		</g>
		<g>
			<rect x="187.2" y="340.8" class="st9" width="28.3" height="8.5"/>
			<g>
				<path class="st9" d="M215.5,349.3c0,3.5-6.3,6.4-14.2,6.4c-7.8,0-14.2-2.8-14.2-6.4s6.3-6.4,14.2-6.4
					C209.2,343,215.5,345.8,215.5,349.3z"/>
				<path class="st10" d="M215.5,340.8c0,3.5-6.3,6.4-14.2,6.4c-7.8,0-14.2-2.8-14.2-6.4c0-3.5,6.3-6.4,14.2-6.4
					C209.2,334.5,215.5,337.3,215.5,340.8z"/>
			</g>
		</g>
	</g>
	<g>
		<g>
			<polygon class="st11" points="236.1,348.6 186.2,378.2 186.2,316.4 236.1,286.9 			"/>
			<polygon class="st12" points="186.2,378.2 89.3,347.3 89.3,285.5 186.2,316.4 			"/>
			<polygon class="st13" points="186.2,316.4 89.3,285.5 139.2,256 236.1,286.9 			"/>
		</g>
		<g>
			<rect x="111.1" y="277" class="st11" width="28.3" height="8.5"/>
			<g>
				<path class="st11" d="M139.4,285.5c0,3.5-6.3,6.4-14.2,6.4c-7.8,0-14.2-2.8-14.2-6.4s6.3-6.4,14.2-6.4
					C133.1,279.2,139.4,282,139.4,285.5z"/>
				<path class="st13" d="M139.4,277c0,3.5-6.3,6.4-14.2,6.4c-7.8,0-14.2-2.8-14.2-6.4s6.3-6.4,14.2-6.4
					C133.1,270.6,139.4,273.5,139.4,277z"/>
			</g>
		</g>
		<g>
			<rect x="136.6" y="261.1" class="st11" width="28.3" height="8.5"/>
			<g>
				<path class="st11" d="M164.9,269.6c0,3.5-6.3,6.4-14.2,6.4c-7.8,0-14.2-2.8-14.2-6.4c0-3.5,6.3-6.4,14.2-6.4
					C158.6,263.2,164.9,266.1,164.9,269.6z"/>
				<path class="st13" d="M164.9,261.1c0,3.5-6.3,6.4-14.2,6.4c-7.8,0-14.2-2.8-14.2-6.4c0-3.5,6.3-6.4,14.2-6.4
					C158.6,254.7,164.9,257.6,164.9,261.1z"/>
			</g>
		</g>
		<g>
			<rect x="162.9" y="293.9" class="st11" width="28.3" height="8.5"/>
			<g>
				<path class="st11" d="M191.2,302.4c0,3.5-6.3,6.4-14.2,6.4c-7.8,0-14.2-2.8-14.2-6.4c0-3.5,6.3-6.4,14.2-6.4
					C184.8,296.1,191.2,298.9,191.2,302.4z"/>
				<path class="st13" d="M191.2,293.9c0,3.5-6.3,6.4-14.2,6.4c-7.8,0-14.2-2.8-14.2-6.4c0-3.5,6.3-6.4,14.2-6.4
					C184.8,287.6,191.2,290.4,191.2,293.9z"/>
			</g>
		</g>
		<g>
			<rect x="187.4" y="279.1" class="st11" width="28.3" height="8.5"/>
			<g>
				<path class="st11" d="M215.7,287.6c0,3.5-6.3,6.4-14.2,6.4c-7.8,0-14.2-2.8-14.2-6.4s6.3-6.4,14.2-6.4
					C209.3,281.3,215.7,284.1,215.7,287.6z"/>
				<path class="st13" d="M215.7,279.1c0,3.5-6.3,6.4-14.2,6.4c-7.8,0-14.2-2.8-14.2-6.4s6.3-6.4,14.2-6.4
					C209.3,272.7,215.7,275.6,215.7,279.1z"/>
			</g>
		</g>
	</g>
	<g>
		<g>
			<polygon class="st14" points="236.1,286.8 186.2,316.4 186.2,254.6 236.1,225.1 			"/>
			<polygon class="st15" points="186.2,316.4 89.3,285.5 89.3,223.7 186.2,254.6 			"/>
			<polygon class="st16" points="186.2,254.6 89.3,223.7 139.2,194.2 236.1,225.1 			"/>
		</g>
		<g>
			<rect x="111.1" y="215.2" class="st14" width="28.3" height="8.5"/>
			<g>
				<path class="st14" d="M139.4,223.7c0,3.5-6.3,6.4-14.2,6.4c-7.8,0-14.2-2.8-14.2-6.4c0-3.5,6.3-6.4,14.2-6.4
					C133.1,217.3,139.4,220.2,139.4,223.7z"/>
				<path class="st16" d="M139.4,215.2c0,3.5-6.3,6.4-14.2,6.4c-7.8,0-14.2-2.8-14.2-6.4c0-3.5,6.3-6.4,14.2-6.4
					C133.1,208.8,139.4,211.7,139.4,215.2z"/>
			</g>
		</g>
		<g>
			<rect x="136.6" y="199.3" class="st14" width="28.3" height="8.5"/>
			<g>
				<path class="st14" d="M164.9,207.8c0,3.5-6.3,6.4-14.2,6.4c-7.8,0-14.2-2.8-14.2-6.4c0-3.5,6.3-6.4,14.2-6.4
					C158.6,201.4,164.9,204.3,164.9,207.8z"/>
				<path class="st16" d="M164.9,199.3c0,3.5-6.3,6.4-14.2,6.4c-7.8,0-14.2-2.8-14.2-6.4c0-3.5,6.3-6.4,14.2-6.4
					C158.6,192.9,164.9,195.7,164.9,199.3z"/>
			</g>
		</g>
		<g>
			<rect x="162.9" y="232.1" class="st14" width="28.3" height="8.5"/>
			<g>
				<path class="st14" d="M191.2,240.6c0,3.5-6.3,6.4-14.2,6.4c-7.8,0-14.2-2.8-14.2-6.4s6.3-6.4,14.2-6.4
					C184.8,234.3,191.2,237.1,191.2,240.6z"/>
				<path class="st16" d="M191.2,232.1c0,3.5-6.3,6.4-14.2,6.4c-7.8,0-14.2-2.8-14.2-6.4c0-3.5,6.3-6.4,14.2-6.4
					C184.8,225.7,191.2,228.6,191.2,232.1z"/>
			</g>
		</g>
		<g>
			<rect x="187.4" y="217.3" class="st14" width="28.3" height="8.5"/>
			<g>
				<path class="st14" d="M215.7,225.8c0,3.5-6.3,6.4-14.2,6.4c-7.8,0-14.2-2.8-14.2-6.4c0-3.5,6.3-6.4,14.2-6.4
					C209.3,219.4,215.7,222.3,215.7,225.8z"/>
				<path class="st16" d="M215.7,217.3c0,3.5-6.3,6.4-14.2,6.4c-7.8,0-14.2-2.8-14.2-6.4c0-3.5,6.3-6.4,14.2-6.4
					C209.3,210.9,215.7,213.8,215.7,217.3z"/>
			</g>
		</g>
	</g>
	<g>
		<g>
			<polygon class="st4" points="236.1,225.1 186.2,254.6 186.2,192.8 236.1,163.3 			"/>
			<polygon class="st5" points="186.2,254.6 89.3,223.7 89.3,161.9 186.2,192.8 			"/>
			<polygon class="st6" points="186.2,192.8 89.3,161.9 139.2,132.4 236.1,163.3 			"/>
		</g>
		<g>
			<rect x="111.1" y="153.4" class="st7" width="28.3" height="8.5"/>
			<g>
				<path class="st7" d="M139.4,162c0,3.5-6.3,6.4-14.2,6.4c-7.8,0-14.2-2.8-14.2-6.4c0-3.5,6.3-6.4,14.2-6.4
					C133.1,155.6,139.4,158.4,139.4,162z"/>
				<path class="st6" d="M139.4,153.4c0,3.5-6.3,6.4-14.2,6.4c-7.8,0-14.2-2.8-14.2-6.4c0-3.5,6.3-6.4,14.2-6.4
					C133.1,147.1,139.4,149.9,139.4,153.4z"/>
			</g>
		</g>
		<g>
			<rect x="136.6" y="137.5" class="st7" width="28.3" height="8.5"/>
			<g>
				<path class="st7" d="M164.9,146c0,3.5-6.3,6.4-14.2,6.4c-7.8,0-14.2-2.8-14.2-6.4c0-3.5,6.3-6.4,14.2-6.4
					C158.6,139.7,164.9,142.5,164.9,146z"/>
				<path class="st6" d="M164.9,137.5c0,3.5-6.3,6.4-14.2,6.4c-7.8,0-14.2-2.8-14.2-6.4c0-3.5,6.3-6.4,14.2-6.4
					C158.6,131.2,164.9,134,164.9,137.5z"/>
			</g>
		</g>
		<g>
			<rect x="162.9" y="170.4" class="st7" width="28.3" height="8.5"/>
			<g>
				<path class="st7" d="M191.2,178.9c0,3.5-6.3,6.4-14.2,6.4c-7.8,0-14.2-2.8-14.2-6.4s6.3-6.4,14.2-6.4
					C184.8,172.5,191.2,175.4,191.2,178.9z"/>
				<path class="st6" d="M191.2,170.4c0,3.5-6.3,6.4-14.2,6.4c-7.8,0-14.2-2.8-14.2-6.4c0-3.5,6.3-6.4,14.2-6.4
					C184.8,164,191.2,166.9,191.2,170.4z"/>
			</g>
		</g>
		<g>
			<rect x="187.4" y="155.5" class="st7" width="28.3" height="8.5"/>
			<g>
				<path class="st7" d="M215.7,164.1c0,3.5-6.3,6.4-14.2,6.4c-7.8,0-14.2-2.8-14.2-6.4c0-3.5,6.3-6.4,14.2-6.4
					C209.3,157.7,215.7,160.5,215.7,164.1z"/>
				<path class="st6" d="M215.7,155.5c0,3.5-6.3,6.4-14.2,6.4c-7.8,0-14.2-2.8-14.2-6.4c0-3.5,6.3-6.4,14.2-6.4
					C209.3,149.2,215.7,152,215.7,155.5z"/>
			</g>
		</g>
	</g>
	<g>
		<g>
			<polygon class="st4" points="191.9,149.1 142.1,178.6 142.1,116.8 191.9,87.3 			"/>
			<polygon class="st5" points="142.1,178.6 45.2,147.7 45.2,85.9 142.1,116.8 			"/>
			<polygon class="st6" points="142.1,116.8 45.2,85.9 95,56.4 191.9,87.3 			"/>
		</g>
		<g>
			<rect x="67" y="77.4" class="st7" width="28.3" height="8.5"/>
			<g>
				<path class="st7" d="M95.3,86c0,3.5-6.3,6.4-14.2,6.4C73.3,92.3,67,89.5,67,86c0-3.5,6.3-6.4,14.2-6.4
					C88.9,79.6,95.3,82.4,95.3,86z"/>
				<path class="st6" d="M95.3,77.4c0,3.5-6.3,6.4-14.2,6.4c-7.8,0-14.2-2.8-14.2-6.4c0-3.5,6.3-6.4,14.2-6.4
					C88.9,71.1,95.3,73.9,95.3,77.4z"/>
			</g>
		</g>
		<g>
			<rect x="92.4" y="61.5" class="st7" width="28.3" height="8.5"/>
			<g>
				<path class="st7" d="M120.7,70c0,3.5-6.3,6.4-14.2,6.4c-7.8,0-14.2-2.8-14.2-6.4c0-3.5,6.3-6.4,14.2-6.4
					C114.4,63.7,120.7,66.5,120.7,70z"/>
				<path class="st6" d="M120.7,61.5c0,3.5-6.3,6.4-14.2,6.4c-7.8,0-14.2-2.8-14.2-6.4s6.3-6.4,14.2-6.4
					C114.4,55.2,120.7,58,120.7,61.5z"/>
			</g>
		</g>
		<g>
			<rect x="118.7" y="94.4" class="st7" width="28.3" height="8.5"/>
			<g>
				<path class="st7" d="M147,102.9c0,3.5-6.3,6.4-14.2,6.4c-7.8,0-14.2-2.8-14.2-6.4c0-3.5,6.3-6.4,14.2-6.4
					C140.7,96.5,147,99.4,147,102.9z"/>
				<path class="st6" d="M147,94.4c0,3.5-6.3,6.4-14.2,6.4c-7.8,0-14.2-2.8-14.2-6.4c0-3.5,6.3-6.4,14.2-6.4
					C140.7,88,147,90.9,147,94.4z"/>
			</g>
		</g>
		<g>
			<rect x="143.2" y="79.5" class="st7" width="28.3" height="8.5"/>
			<g>
				<path class="st7" d="M171.5,88c0,3.5-6.3,6.4-14.2,6.4c-7.8,0-14.2-2.8-14.2-6.4s6.3-6.4,14.2-6.4
					C165.2,81.7,171.5,84.5,171.5,88z"/>
				<path class="st6" d="M171.5,79.5c0,3.5-6.3,6.4-14.2,6.4c-7.8,0-14.2-2.8-14.2-6.4c0-3.5,6.3-6.4,14.2-6.4
					C165.2,73.2,171.5,76,171.5,79.5z"/>
			</g>
		</g>
	</g>
	<g>
		<g>
			<polygon class="st1" points="289.2,180.1 239.4,209.6 239.4,147.9 289.2,118.3 			"/>
			<polygon class="st2" points="239.4,209.6 142.4,178.7 142.4,116.9 239.4,147.9 			"/>
			<polygon class="st3" points="239.4,147.9 142.4,116.9 192.3,87.4 289.2,118.3 			"/>
		</g>
		<g>
			<rect x="164.2" y="108.5" class="st1" width="28.3" height="8.5"/>
			<g>
				<path class="st1" d="M192.5,117c0,3.5-6.3,6.4-14.2,6.4c-7.8,0-14.2-2.8-14.2-6.4c0-3.5,6.3-6.4,14.2-6.4
					C186.2,110.6,192.5,113.5,192.5,117z"/>
				<path class="st3" d="M192.5,108.5c0,3.5-6.3,6.4-14.2,6.4c-7.8,0-14.2-2.8-14.2-6.4c0-3.5,6.3-6.4,14.2-6.4
					C186.2,102.1,192.5,104.9,192.5,108.5z"/>
			</g>
		</g>
		<g>
			<rect x="189.7" y="92.5" class="st1" width="28.3" height="8.5"/>
			<g>
				<path class="st1" d="M218,101c0,3.5-6.3,6.4-14.2,6.4c-7.8,0-14.2-2.8-14.2-6.4c0-3.5,6.3-6.4,14.2-6.4
					C211.7,94.7,218,97.5,218,101z"/>
				<path class="st3" d="M218,92.5c0,3.5-6.3,6.4-14.2,6.4c-7.8,0-14.2-2.8-14.2-6.4c0-3.5,6.3-6.4,14.2-6.4
					C211.7,86.2,218,89,218,92.5z"/>
			</g>
		</g>
		<g>
			<rect x="216" y="125.4" class="st1" width="28.3" height="8.5"/>
			<g>
				<path class="st1" d="M244.3,133.9c0,3.5-6.3,6.4-14.2,6.4c-7.8,0-14.2-2.8-14.2-6.4s6.3-6.4,14.2-6.4
					C237.9,127.5,244.3,130.4,244.3,133.9z"/>
				<path class="st3" d="M244.3,125.4c0,3.5-6.3,6.4-14.2,6.4c-7.8,0-14.2-2.8-14.2-6.4s6.3-6.4,14.2-6.4
					C237.9,119,244.3,121.9,244.3,125.4z"/>
			</g>
		</g>
		<g>
			<rect x="240.5" y="110.5" class="st1" width="28.3" height="8.5"/>
			<g>
				<path class="st1" d="M268.8,119.1c0,3.5-6.3,6.4-14.2,6.4c-7.8,0-14.2-2.8-14.2-6.4c0-3.5,6.3-6.4,14.2-6.4
					C262.5,112.7,268.8,115.6,268.8,119.1z"/>
				<path class="st3" d="M268.8,110.5c0,3.5-6.3,6.4-14.2,6.4c-7.8,0-14.2-2.8-14.2-6.4c0-3.5,6.3-6.4,14.2-6.4
					C262.5,104.2,268.8,107,268.8,110.5z"/>
			</g>
		</g>
	</g>
	<g>
		<g>
			<polygon class="st1" points="382.3,641.4 332.4,670.9 332.4,609.1 382.3,579.6 			"/>
			<polygon class="st2" points="332.4,670.9 235.5,640 235.5,578.2 332.4,609.1 			"/>
			<polygon class="st3" points="332.4,609.1 235.5,578.2 285.4,548.7 382.3,579.6 			"/>
		</g>
		<g>
			<rect x="257.3" y="569.7" class="st1" width="28.3" height="8.5"/>
			<g>
				<path class="st1" d="M285.6,578.2c0,3.5-6.3,6.4-14.2,6.4c-7.8,0-14.2-2.8-14.2-6.4c0-3.5,6.3-6.4,14.2-6.4
					C279.3,571.9,285.6,574.7,285.6,578.2z"/>
				<path class="st3" d="M285.6,569.7c0,3.5-6.3,6.4-14.2,6.4c-7.8,0-14.2-2.8-14.2-6.4c0-3.5,6.3-6.4,14.2-6.4
					C279.3,563.4,285.6,566.2,285.6,569.7z"/>
			</g>
		</g>
		<g>
			<rect x="282.8" y="553.8" class="st1" width="28.3" height="8.5"/>
			<g>
				<path class="st1" d="M311.1,562.3c0,3.5-6.3,6.4-14.2,6.4c-7.8,0-14.2-2.8-14.2-6.4c0-3.5,6.3-6.4,14.2-6.4
					C304.7,556,311.1,558.8,311.1,562.3z"/>
				<path class="st3" d="M311.1,553.8c0,3.5-6.3,6.4-14.2,6.4c-7.8,0-14.2-2.8-14.2-6.4c0-3.5,6.3-6.4,14.2-6.4
					C304.7,547.4,311.1,550.3,311.1,553.8z"/>
			</g>
		</g>
		<g>
			<rect x="309" y="586.6" class="st1" width="28.3" height="8.5"/>
			<g>
				<path class="st1" d="M337.3,595.1c0,3.5-6.3,6.4-14.2,6.4c-7.8,0-14.2-2.8-14.2-6.4c0-3.5,6.3-6.4,14.2-6.4
					C331,588.8,337.3,591.6,337.3,595.1z"/>
				<path class="st3" d="M337.3,586.6c0,3.5-6.3,6.4-14.2,6.4c-7.8,0-14.2-2.8-14.2-6.4c0-3.5,6.3-6.4,14.2-6.4
					C331,580.3,337.3,583.1,337.3,586.6z"/>
			</g>
		</g>
		<g>
			<rect x="333.6" y="571.8" class="st1" width="28.3" height="8.5"/>
			<g>
				<path class="st1" d="M361.9,580.3c0,3.5-6.3,6.4-14.2,6.4c-7.8,0-14.2-2.8-14.2-6.4c0-3.5,6.3-6.4,14.2-6.4
					C355.5,574,361.9,576.8,361.9,580.3z"/>
				<path class="st3" d="M361.9,571.8c0,3.5-6.3,6.4-14.2,6.4c-7.8,0-14.2-2.8-14.2-6.4c0-3.5,6.3-6.4,14.2-6.4
					C355.5,565.5,361.9,568.3,361.9,571.8z"/>
			</g>
		</g>
	</g>
	<g>
		<g>
			<polygon class="st9" points="342.2,136.4 292.3,165.9 292.3,104.1 342.2,74.6 			"/>
			<polygon class="st8" points="292.3,165.9 195.4,135 195.4,73.2 292.3,104.1 			"/>
			<polygon class="st10" points="292.3,104.1 195.4,73.2 245.3,43.7 342.2,74.6 			"/>
		</g>
		<g>
			<rect x="217.2" y="64.7" class="st9" width="28.3" height="8.5"/>
			<g>
				<path class="st9" d="M245.5,73.2c0,3.5-6.3,6.4-14.2,6.4c-7.8,0-14.2-2.8-14.2-6.4c0-3.5,6.3-6.4,14.2-6.4
					C239.2,66.9,245.5,69.7,245.5,73.2z"/>
				<path class="st10" d="M245.5,64.7c0,3.5-6.3,6.4-14.2,6.4c-7.8,0-14.2-2.8-14.2-6.4c0-3.5,6.3-6.4,14.2-6.4
					C239.2,58.4,245.5,61.2,245.5,64.7z"/>
			</g>
		</g>
		<g>
			<rect x="242.7" y="48.8" class="st9" width="28.3" height="8.5"/>
			<g>
				<path class="st9" d="M271,57.3c0,3.5-6.3,6.4-14.2,6.4c-7.8,0-14.2-2.8-14.2-6.4c0-3.5,6.3-6.4,14.2-6.4
					C264.6,51,271,53.8,271,57.3z"/>
				<path class="st10" d="M271,48.8c0,3.5-6.3,6.4-14.2,6.4c-7.8,0-14.2-2.8-14.2-6.4c0-3.5,6.3-6.4,14.2-6.4
					C264.6,42.5,271,45.3,271,48.8z"/>
			</g>
		</g>
		<g>
			<rect x="268.9" y="81.7" class="st9" width="28.3" height="8.5"/>
			<g>
				<path class="st9" d="M297.3,90.2c0,3.5-6.3,6.4-14.2,6.4c-7.8,0-14.2-2.8-14.2-6.4c0-3.5,6.3-6.4,14.2-6.4
					C290.9,83.8,297.3,86.7,297.3,90.2z"/>
				<path class="st10" d="M297.3,81.7c0,3.5-6.3,6.4-14.2,6.4c-7.8,0-14.2-2.8-14.2-6.4c0-3.5,6.3-6.4,14.2-6.4
					C290.9,75.3,297.3,78.1,297.3,81.7z"/>
			</g>
		</g>
		<g>
			<rect x="293.5" y="66.8" class="st9" width="28.3" height="8.5"/>
			<g>
				<path class="st9" d="M321.8,75.3c0,3.5-6.3,6.4-14.2,6.4c-7.8,0-14.2-2.8-14.2-6.4c0-3.5,6.3-6.4,14.2-6.4
					C315.4,69,321.8,71.8,321.8,75.3z"/>
				<path class="st10" d="M321.8,66.8c0,3.5-6.3,6.4-14.2,6.4c-7.8,0-14.2-2.8-14.2-6.4c0-3.5,6.3-6.4,14.2-6.4
					C315.4,60.5,321.8,63.3,321.8,66.8z"/>
			</g>
		</g>
	</g>
	<g>
		<g>
			<polygon class="st9" points="902.5,628.6 952.4,658.2 952.4,596.4 902.5,566.9 			"/>
			<polygon class="st9" points="952.4,658.2 1049.3,627.3 1049.3,565.5 952.4,596.4 			"/>
			<polygon class="st10" points="952.4,596.4 1049.3,565.5 999.5,536 902.5,566.9 			"/>
		</g>
		<g>
			<rect x="999.2" y="557" class="st9" width="28.3" height="8.5"/>
			<g>
				<path class="st9" d="M999.2,565.5c0,3.5,6.3,6.4,14.2,6.4s14.2-2.8,14.2-6.4c0-3.5-6.3-6.4-14.2-6.4S999.2,562,999.2,565.5z"/>
				<path class="st10" d="M999.2,557c0,3.5,6.3,6.4,14.2,6.4s14.2-2.8,14.2-6.4c0-3.5-6.3-6.4-14.2-6.4S999.2,553.5,999.2,557z"/>
			</g>
		</g>
		<g>
			<rect x="973.8" y="541.1" class="st9" width="28.3" height="8.5"/>
			<g>
				<path class="st9" d="M973.8,549.6c0,3.5,6.3,6.4,14.2,6.4c7.8,0,14.2-2.8,14.2-6.4c0-3.5-6.3-6.4-14.2-6.4
					C980.1,543.2,973.8,546.1,973.8,549.6z"/>
				<path class="st10" d="M973.8,541.1c0,3.5,6.3,6.4,14.2,6.4c7.8,0,14.2-2.8,14.2-6.4c0-3.5-6.3-6.4-14.2-6.4
					C980.1,534.7,973.8,537.5,973.8,541.1z"/>
			</g>
		</g>
		<g>
			<rect x="947.5" y="573.9" class="st9" width="28.3" height="8.5"/>
			<g>
				<path class="st9" d="M947.5,582.4c0,3.5,6.3,6.4,14.2,6.4c7.8,0,14.2-2.8,14.2-6.4c0-3.5-6.3-6.4-14.2-6.4
					C953.8,576.1,947.5,578.9,947.5,582.4z"/>
				<path class="st10" d="M947.5,573.9c0,3.5,6.3,6.4,14.2,6.4c7.8,0,14.2-2.8,14.2-6.4c0-3.5-6.3-6.4-14.2-6.4
					C953.8,567.5,947.5,570.4,947.5,573.9z"/>
			</g>
		</g>
		<g>
			<rect x="923" y="559.1" class="st9" width="28.3" height="8.5"/>
			<g>
				<path class="st9" d="M923,567.6c0,3.5,6.3,6.4,14.2,6.4c7.8,0,14.2-2.8,14.2-6.4c0-3.5-6.3-6.4-14.2-6.4
					C929.3,561.2,923,564.1,923,567.6z"/>
				<path class="st10" d="M923,559.1c0,3.5,6.3,6.4,14.2,6.4c7.8,0,14.2-2.8,14.2-6.4c0-3.5-6.3-6.4-14.2-6.4
					C929.3,552.7,923,555.6,923,559.1z"/>
			</g>
		</g>
	</g>
	<g>
		<g>
			<polygon class="st4" points="403.6,93.9 353.8,123.5 353.8,61.7 403.6,32.2 			"/>
			<polygon class="st5" points="353.8,123.5 256.8,92.6 256.8,30.8 353.8,61.7 			"/>
			<polygon class="st6" points="353.8,61.7 256.8,30.8 306.7,1.3 403.6,32.2 			"/>
		</g>
		<g>
			<rect x="278.6" y="22.3" class="st7" width="28.3" height="8.5"/>
			<g>
				<path class="st7" d="M306.9,30.8c0,3.5-6.3,6.4-14.2,6.4c-7.8,0-14.2-2.8-14.2-6.4c0-3.5,6.3-6.4,14.2-6.4
					C300.6,24.4,306.9,27.3,306.9,30.8z"/>
				<path class="st6" d="M306.9,22.3c0,3.5-6.3,6.4-14.2,6.4c-7.8,0-14.2-2.8-14.2-6.4c0-3.5,6.3-6.4,14.2-6.4
					C300.6,15.9,306.9,18.8,306.9,22.3z"/>
			</g>
		</g>
		<g>
			<rect x="304.1" y="6.4" class="st7" width="28.3" height="8.5"/>
			<g>
				<path class="st7" d="M332.4,14.9c0,3.5-6.3,6.4-14.2,6.4c-7.8,0-14.2-2.8-14.2-6.4c0-3.5,6.3-6.4,14.2-6.4
					C326.1,8.5,332.4,11.4,332.4,14.9z"/>
				<path class="st6" d="M332.4,6.4c0,3.5-6.3,6.4-14.2,6.4c-7.8,0-14.2-2.8-14.2-6.4c0-3.5,6.3-6.4,14.2-6.4
					C326.1,0,332.4,2.8,332.4,6.4z"/>
			</g>
		</g>
		<g>
			<rect x="330.4" y="39.2" class="st7" width="28.3" height="8.5"/>
			<g>
				<path class="st7" d="M358.7,47.7c0,3.5-6.3,6.4-14.2,6.4c-7.8,0-14.2-2.8-14.2-6.4c0-3.5,6.3-6.4,14.2-6.4
					C352.3,41.4,358.7,44.2,358.7,47.7z"/>
				<path class="st6" d="M358.7,39.2c0,3.5-6.3,6.4-14.2,6.4c-7.8,0-14.2-2.8-14.2-6.4s6.3-6.4,14.2-6.4
					C352.3,32.8,358.7,35.7,358.7,39.2z"/>
			</g>
		</g>
		<g>
			<rect x="354.9" y="24.4" class="st7" width="28.3" height="8.5"/>
			<g>
				<path class="st7" d="M383.2,32.9c0,3.5-6.3,6.4-14.2,6.4c-7.8,0-14.2-2.8-14.2-6.4c0-3.5,6.3-6.4,14.2-6.4
					C376.9,26.5,383.2,29.4,383.2,32.9z"/>
				<path class="st6" d="M383.2,24.4c0,3.5-6.3,6.4-14.2,6.4c-7.8,0-14.2-2.8-14.2-6.4c0-3.5,6.3-6.4,14.2-6.4
					C376.9,18,383.2,20.9,383.2,24.4z"/>
			</g>
		</g>
	</g>
	<g>
		<g>
			<polygon class="st2" points="805.7,659.6 855.6,689.2 855.6,627.4 805.7,597.9 			"/>
			<polygon class="st1" points="855.6,689.2 952.5,658.3 952.5,596.5 855.6,627.4 			"/>
			<polygon class="st3" points="855.6,627.4 952.5,596.5 902.7,567 805.7,597.9 			"/>
		</g>
		<g>
			<rect x="902.4" y="588" class="st1" width="28.3" height="8.5"/>
			<g>
				<path class="st1" d="M902.4,596.5c0,3.5,6.3,6.4,14.2,6.4c7.8,0,14.2-2.8,14.2-6.4c0-3.5-6.3-6.4-14.2-6.4
					C908.8,590.1,902.4,593,902.4,596.5z"/>
				<path class="st3" d="M902.4,588c0,3.5,6.3,6.4,14.2,6.4c7.8,0,14.2-2.8,14.2-6.4c0-3.5-6.3-6.4-14.2-6.4
					C908.8,581.6,902.4,584.5,902.4,588z"/>
			</g>
		</g>
		<g>
			<rect x="877" y="572.1" class="st1" width="28.3" height="8.5"/>
			<g>
				<path class="st1" d="M877,580.6c0,3.5,6.3,6.4,14.2,6.4c7.8,0,14.2-2.8,14.2-6.4c0-3.5-6.3-6.4-14.2-6.4
					C883.3,574.2,877,577.1,877,580.6z"/>
				<path class="st3" d="M877,572.1c0,3.5,6.3,6.4,14.2,6.4c7.8,0,14.2-2.8,14.2-6.4c0-3.5-6.3-6.4-14.2-6.4
					C883.3,565.7,877,568.6,877,572.1z"/>
			</g>
		</g>
		<g>
			<rect x="850.7" y="604.9" class="st1" width="28.3" height="8.5"/>
			<g>
				<path class="st1" d="M850.7,613.4c0,3.5,6.3,6.4,14.2,6.4c7.8,0,14.2-2.8,14.2-6.4c0-3.5-6.3-6.4-14.2-6.4
					C857,607.1,850.7,609.9,850.7,613.4z"/>
				<path class="st3" d="M850.7,604.9c0,3.5,6.3,6.4,14.2,6.4c7.8,0,14.2-2.8,14.2-6.4c0-3.5-6.3-6.4-14.2-6.4
					C857,598.5,850.7,601.4,850.7,604.9z"/>
			</g>
		</g>
		<g>
			<rect x="826.2" y="590.1" class="st1" width="28.3" height="8.5"/>
			<g>
				<path class="st1" d="M826.2,598.6c0,3.5,6.3,6.4,14.2,6.4c7.8,0,14.2-2.8,14.2-6.4c0-3.5-6.3-6.4-14.2-6.4
					C832.5,592.2,826.2,595.1,826.2,598.6z"/>
				<path class="st3" d="M826.2,590.1c0,3.5,6.3,6.4,14.2,6.4c7.8,0,14.2-2.8,14.2-6.4c0-3.5-6.3-6.4-14.2-6.4
					C832.5,583.7,826.2,586.6,826.2,590.1z"/>
			</g>
		</g>
	</g>
	<g>
		<g>
			<polygon class="st2" points="805.9,597.6 855.7,627.2 855.7,565.4 805.9,535.9 			"/>
			<polygon class="st1" points="855.7,627.2 952.7,596.3 952.7,534.5 855.7,565.4 			"/>
			<polygon class="st3" points="855.7,565.4 952.7,534.5 902.8,504.9 805.9,535.9 			"/>
		</g>
		<g>
			<rect x="902.5" y="526" class="st1" width="28.3" height="8.5"/>
			<g>
				<path class="st1" d="M902.5,534.5c0,3.5,6.3,6.4,14.2,6.4c7.8,0,14.2-2.8,14.2-6.4c0-3.5-6.3-6.4-14.2-6.4
					C908.9,528.1,902.5,531,902.5,534.5z"/>
				<path class="st3" d="M902.5,526c0,3.5,6.3,6.4,14.2,6.4c7.8,0,14.2-2.8,14.2-6.4c0-3.5-6.3-6.4-14.2-6.4
					C908.9,519.6,902.5,522.5,902.5,526z"/>
			</g>
		</g>
		<g>
			<rect x="877.1" y="510" class="st1" width="28.3" height="8.5"/>
			<g>
				<path class="st1" d="M877.1,518.6c0,3.5,6.3,6.4,14.2,6.4c7.8,0,14.2-2.8,14.2-6.4c0-3.5-6.3-6.4-14.2-6.4
					C883.4,512.2,877.1,515,877.1,518.6z"/>
				<path class="st3" d="M877.1,510c0,3.5,6.3,6.4,14.2,6.4c7.8,0,14.2-2.8,14.2-6.4c0-3.5-6.3-6.4-14.2-6.4
					C883.4,503.7,877.1,506.5,877.1,510z"/>
			</g>
		</g>
		<g>
			<rect x="850.8" y="542.9" class="st1" width="28.3" height="8.5"/>
			<g>
				<path class="st1" d="M850.8,551.4c0,3.5,6.3,6.4,14.2,6.4c7.8,0,14.2-2.8,14.2-6.4s-6.3-6.4-14.2-6.4
					C857.2,545,850.8,547.9,850.8,551.4z"/>
				<path class="st3" d="M850.8,542.9c0,3.5,6.3,6.4,14.2,6.4c7.8,0,14.2-2.8,14.2-6.4c0-3.5-6.3-6.4-14.2-6.4
					C857.2,536.5,850.8,539.4,850.8,542.9z"/>
			</g>
		</g>
		<g>
			<rect x="826.3" y="528.1" class="st1" width="28.3" height="8.5"/>
			<g>
				<path class="st1" d="M826.3,536.6c0,3.5,6.3,6.4,14.2,6.4c7.8,0,14.2-2.8,14.2-6.4c0-3.5-6.3-6.4-14.2-6.4
					C832.6,530.2,826.3,533.1,826.3,536.6z"/>
				<path class="st3" d="M826.3,528.1c0,3.5,6.3,6.4,14.2,6.4c7.8,0,14.2-2.8,14.2-6.4c0-3.5-6.3-6.4-14.2-6.4
					C832.6,521.7,826.3,524.6,826.3,528.1z"/>
			</g>
		</g>
	</g>
	<g>
		<g>
			<polygon class="st8" points="805.9,535.7 855.7,565.3 855.7,503.5 805.9,474 			"/>
			<polygon class="st9" points="855.7,565.3 952.7,534.4 952.7,472.6 855.7,503.5 			"/>
			<polygon class="st10" points="855.7,503.5 952.7,472.6 902.8,443.1 805.9,474 			"/>
		</g>
		<g>
			<rect x="902.5" y="464.1" class="st9" width="28.3" height="8.5"/>
			<g>
				<path class="st9" d="M902.5,472.6c0,3.5,6.3,6.4,14.2,6.4c7.8,0,14.2-2.8,14.2-6.4c0-3.5-6.3-6.4-14.2-6.4
					C908.9,466.3,902.5,469.1,902.5,472.6z"/>
				<path class="st10" d="M902.5,464.1c0,3.5,6.3,6.4,14.2,6.4c7.8,0,14.2-2.8,14.2-6.4c0-3.5-6.3-6.4-14.2-6.4
					C908.9,457.8,902.5,460.6,902.5,464.1z"/>
			</g>
		</g>
		<g>
			<rect x="877.1" y="448.2" class="st9" width="28.3" height="8.5"/>
			<g>
				<path class="st9" d="M877.1,456.7c0,3.5,6.3,6.4,14.2,6.4c7.8,0,14.2-2.8,14.2-6.4c0-3.5-6.3-6.4-14.2-6.4
					C883.4,450.3,877.1,453.2,877.1,456.7z"/>
				<path class="st10" d="M877.1,448.2c0,3.5,6.3,6.4,14.2,6.4c7.8,0,14.2-2.8,14.2-6.4c0-3.5-6.3-6.4-14.2-6.4
					C883.4,441.8,877.1,444.7,877.1,448.2z"/>
			</g>
		</g>
		<g>
			<rect x="850.8" y="481" class="st9" width="28.3" height="8.5"/>
			<g>
				<path class="st9" d="M850.8,489.5c0,3.5,6.3,6.4,14.2,6.4c7.8,0,14.2-2.8,14.2-6.4s-6.3-6.4-14.2-6.4
					C857.2,483.2,850.8,486,850.8,489.5z"/>
				<path class="st10" d="M850.8,481c0,3.5,6.3,6.4,14.2,6.4c7.8,0,14.2-2.8,14.2-6.4s-6.3-6.4-14.2-6.4
					C857.2,474.7,850.8,477.5,850.8,481z"/>
			</g>
		</g>
		<g>
			<rect x="826.3" y="466.2" class="st9" width="28.3" height="8.5"/>
			<g>
				<path class="st9" d="M826.3,474.7c0,3.5,6.3,6.4,14.2,6.4c7.8,0,14.2-2.8,14.2-6.4c0-3.5-6.3-6.4-14.2-6.4
					C832.6,468.4,826.3,471.2,826.3,474.7z"/>
				<path class="st10" d="M826.3,466.2c0,3.5,6.3,6.4,14.2,6.4c7.8,0,14.2-2.8,14.2-6.4c0-3.5-6.3-6.4-14.2-6.4
					C832.6,459.9,826.3,462.7,826.3,466.2z"/>
			</g>
		</g>
	</g>
	<g>
		<g>
			<polygon class="st15" points="805.6,474 855.5,503.6 855.5,441.8 805.6,412.3 			"/>
			<polygon class="st14" points="855.5,503.6 952.4,472.7 952.4,410.9 855.5,441.8 			"/>
			<polygon class="st16" points="855.5,441.8 952.4,410.9 902.5,381.4 805.6,412.3 			"/>
		</g>
		<g>
			<rect x="902.3" y="402.4" class="st14" width="28.3" height="8.5"/>
			<g>
				<path class="st14" d="M902.3,410.9c0,3.5,6.3,6.4,14.2,6.4c7.8,0,14.2-2.8,14.2-6.4s-6.3-6.4-14.2-6.4
					C908.6,404.5,902.3,407.4,902.3,410.9z"/>
				<path class="st16" d="M902.3,402.4c0,3.5,6.3,6.4,14.2,6.4c7.8,0,14.2-2.8,14.2-6.4c0-3.5-6.3-6.4-14.2-6.4
					C908.6,396,902.3,398.9,902.3,402.4z"/>
			</g>
		</g>
		<g>
			<rect x="876.8" y="386.5" class="st14" width="28.3" height="8.5"/>
			<g>
				<path class="st14" d="M876.8,395c0,3.5,6.3,6.4,14.2,6.4c7.8,0,14.2-2.8,14.2-6.4c0-3.5-6.3-6.4-14.2-6.4
					C883.2,388.6,876.8,391.5,876.8,395z"/>
				<path class="st16" d="M876.8,386.5c0,3.5,6.3,6.4,14.2,6.4c7.8,0,14.2-2.8,14.2-6.4c0-3.5-6.3-6.4-14.2-6.4
					C883.2,380.1,876.8,382.9,876.8,386.5z"/>
			</g>
		</g>
		<g>
			<rect x="850.6" y="419.3" class="st14" width="28.3" height="8.5"/>
			<g>
				<path class="st14" d="M850.6,427.8c0,3.5,6.3,6.4,14.2,6.4c7.8,0,14.2-2.8,14.2-6.4c0-3.5-6.3-6.4-14.2-6.4
					C856.9,421.5,850.6,424.3,850.6,427.8z"/>
				<path class="st16" d="M850.6,419.3c0,3.5,6.3,6.4,14.2,6.4c7.8,0,14.2-2.8,14.2-6.4s-6.3-6.4-14.2-6.4
					C856.9,412.9,850.6,415.8,850.6,419.3z"/>
			</g>
		</g>
		<g>
			<rect x="826" y="404.5" class="st14" width="28.3" height="8.5"/>
			<g>
				<path class="st14" d="M826,413c0,3.5,6.3,6.4,14.2,6.4c7.8,0,14.2-2.8,14.2-6.4c0-3.5-6.3-6.4-14.2-6.4
					C832.4,406.6,826,409.5,826,413z"/>
				<path class="st16" d="M826,404.5c0,3.5,6.3,6.4,14.2,6.4c7.8,0,14.2-2.8,14.2-6.4c0-3.5-6.3-6.4-14.2-6.4
					C832.4,398.1,826,401,826,404.5z"/>
			</g>
		</g>
	</g>
	<g>
		<g>
			<polygon class="st12" points="857.5,396.2 907.3,425.7 907.3,363.9 857.5,334.4 			"/>
			<polygon class="st11" points="907.3,425.7 1004.2,394.8 1004.2,333 907.3,363.9 			"/>
			<polygon class="st13" points="907.3,363.9 1004.2,333 954.4,303.5 857.5,334.4 			"/>
		</g>
		<g>
			<rect x="954.1" y="324.5" class="st11" width="28.3" height="8.5"/>
			<g>
				<path class="st11" d="M954.1,333c0,3.5,6.3,6.4,14.2,6.4c7.8,0,14.2-2.8,14.2-6.4c0-3.5-6.3-6.4-14.2-6.4
					C960.5,326.7,954.1,329.5,954.1,333z"/>
				<path class="st13" d="M954.1,324.5c0,3.5,6.3,6.4,14.2,6.4c7.8,0,14.2-2.8,14.2-6.4s-6.3-6.4-14.2-6.4
					C960.5,318.2,954.1,321,954.1,324.5z"/>
			</g>
		</g>
		<g>
			<rect x="928.7" y="308.6" class="st11" width="28.3" height="8.5"/>
			<g>
				<path class="st11" d="M928.7,317.1c0,3.5,6.3,6.4,14.2,6.4c7.8,0,14.2-2.8,14.2-6.4s-6.3-6.4-14.2-6.4
					C935,310.8,928.7,313.6,928.7,317.1z"/>
				<path class="st13" d="M928.7,308.6c0,3.5,6.3,6.4,14.2,6.4c7.8,0,14.2-2.8,14.2-6.4s-6.3-6.4-14.2-6.4
					C935,302.3,928.7,305.1,928.7,308.6z"/>
			</g>
		</g>
		<g>
			<rect x="902.4" y="341.5" class="st11" width="28.3" height="8.5"/>
			<g>
				<path class="st11" d="M902.4,350c0,3.5,6.3,6.4,14.2,6.4c7.8,0,14.2-2.8,14.2-6.4c0-3.5-6.3-6.4-14.2-6.4
					C908.7,343.6,902.4,346.5,902.4,350z"/>
				<path class="st13" d="M902.4,341.5c0,3.5,6.3,6.4,14.2,6.4c7.8,0,14.2-2.8,14.2-6.4c0-3.5-6.3-6.4-14.2-6.4
					C908.7,335.1,902.4,337.9,902.4,341.5z"/>
			</g>
		</g>
		<g>
			<rect x="877.9" y="326.6" class="st11" width="28.3" height="8.5"/>
			<g>
				<path class="st11" d="M877.9,335.1c0,3.5,6.3,6.4,14.2,6.4c7.8,0,14.2-2.8,14.2-6.4c0-3.5-6.3-6.4-14.2-6.4
					C884.2,328.8,877.9,331.6,877.9,335.1z"/>
				<path class="st13" d="M877.9,326.6c0,3.5,6.3,6.4,14.2,6.4c7.8,0,14.2-2.8,14.2-6.4s-6.3-6.4-14.2-6.4
					C884.2,320.3,877.9,323.1,877.9,326.6z"/>
			</g>
		</g>
	</g>
	<g>
		<g>
			<polygon class="st2" points="857.2,334.4 907.1,364 907.1,302.2 857.2,272.7 			"/>
			<polygon class="st1" points="907.1,364 1004,333.1 1004,271.3 907.1,302.2 			"/>
			<polygon class="st3" points="907.1,302.2 1004,271.3 954.1,241.8 857.2,272.7 			"/>
		</g>
		<g>
			<rect x="953.9" y="262.8" class="st1" width="28.3" height="8.5"/>
			<g>
				<path class="st1" d="M953.9,271.3c0,3.5,6.3,6.4,14.2,6.4s14.2-2.8,14.2-6.4c0-3.5-6.3-6.4-14.2-6.4S953.9,267.8,953.9,271.3z"
					/>
				<path class="st3" d="M953.9,262.8c0,3.5,6.3,6.4,14.2,6.4s14.2-2.8,14.2-6.4c0-3.5-6.3-6.4-14.2-6.4S953.9,259.3,953.9,262.8z"
					/>
			</g>
		</g>
		<g>
			<rect x="928.4" y="246.9" class="st1" width="28.3" height="8.5"/>
			<g>
				<path class="st1" d="M928.4,255.4c0,3.5,6.3,6.4,14.2,6.4c7.8,0,14.2-2.8,14.2-6.4c0-3.5-6.3-6.4-14.2-6.4
					C934.7,249,928.4,251.9,928.4,255.4z"/>
				<path class="st3" d="M928.4,246.9c0,3.5,6.3,6.4,14.2,6.4c7.8,0,14.2-2.8,14.2-6.4c0-3.5-6.3-6.4-14.2-6.4
					C934.7,240.5,928.4,243.4,928.4,246.9z"/>
			</g>
		</g>
		<g>
			<rect x="902.1" y="279.7" class="st1" width="28.3" height="8.5"/>
			<g>
				<path class="st1" d="M902.1,288.2c0,3.5,6.3,6.4,14.2,6.4c7.8,0,14.2-2.8,14.2-6.4c0-3.5-6.3-6.4-14.2-6.4
					C908.5,281.9,902.1,284.7,902.1,288.2z"/>
				<path class="st3" d="M902.1,279.7c0,3.5,6.3,6.4,14.2,6.4c7.8,0,14.2-2.8,14.2-6.4c0-3.5-6.3-6.4-14.2-6.4
					C908.5,273.4,902.1,276.2,902.1,279.7z"/>
			</g>
		</g>
		<g>
			<rect x="877.6" y="264.9" class="st1" width="28.3" height="8.5"/>
			<g>
				<path class="st1" d="M877.6,273.4c0,3.5,6.3,6.4,14.2,6.4c7.8,0,14.2-2.8,14.2-6.4c0-3.5-6.3-6.4-14.2-6.4
					C883.9,267.1,877.6,269.9,877.6,273.4z"/>
				<path class="st3" d="M877.6,264.9c0,3.5,6.3,6.4,14.2,6.4c7.8,0,14.2-2.8,14.2-6.4c0-3.5-6.3-6.4-14.2-6.4
					C883.9,258.5,877.6,261.4,877.6,264.9z"/>
			</g>
		</g>
	</g>
	<g>
		<g>
			<polygon class="st5" points="857,272.9 906.9,302.4 906.9,240.6 857,211.1 			"/>
			<polygon class="st4" points="906.9,302.4 1003.8,271.5 1003.8,209.7 906.9,240.6 			"/>
			<polygon class="st6" points="906.9,240.6 1003.8,209.7 954,180.2 857,211.1 			"/>
		</g>
		<g>
			<rect x="953.7" y="201.2" class="st7" width="28.3" height="8.5"/>
			<g>
				<path class="st7" d="M953.7,209.7c0,3.5,6.3,6.4,14.2,6.4s14.2-2.8,14.2-6.4c0-3.5-6.3-6.4-14.2-6.4S953.7,206.2,953.7,209.7z"
					/>
				<path class="st6" d="M953.7,201.2c0,3.5,6.3,6.4,14.2,6.4s14.2-2.8,14.2-6.4c0-3.5-6.3-6.4-14.2-6.4S953.7,197.7,953.7,201.2z"
					/>
			</g>
		</g>
		<g>
			<rect x="928.3" y="185.3" class="st7" width="28.3" height="8.5"/>
			<g>
				<path class="st7" d="M928.3,193.8c0,3.5,6.3,6.4,14.2,6.4c7.8,0,14.2-2.8,14.2-6.4c0-3.5-6.3-6.4-14.2-6.4
					C934.6,187.5,928.3,190.3,928.3,193.8z"/>
				<path class="st6" d="M928.3,185.3c0,3.5,6.3,6.4,14.2,6.4c7.8,0,14.2-2.8,14.2-6.4c0-3.5-6.3-6.4-14.2-6.4
					C934.6,178.9,928.3,181.8,928.3,185.3z"/>
			</g>
		</g>
		<g>
			<rect x="902" y="218.1" class="st7" width="28.3" height="8.5"/>
			<g>
				<path class="st7" d="M902,226.7c0,3.5,6.3,6.4,14.2,6.4c7.8,0,14.2-2.8,14.2-6.4c0-3.5-6.3-6.4-14.2-6.4
					C908.3,220.3,902,223.1,902,226.7z"/>
				<path class="st6" d="M902,218.1c0,3.5,6.3,6.4,14.2,6.4c7.8,0,14.2-2.8,14.2-6.4c0-3.5-6.3-6.4-14.2-6.4
					C908.3,211.8,902,214.6,902,218.1z"/>
			</g>
		</g>
		<g>
			<rect x="877.5" y="203.3" class="st7" width="28.3" height="8.5"/>
			<g>
				<path class="st7" d="M877.5,211.8c0,3.5,6.3,6.4,14.2,6.4c7.8,0,14.2-2.8,14.2-6.4c0-3.5-6.3-6.4-14.2-6.4
					C883.8,205.5,877.5,208.3,877.5,211.8z"/>
				<path class="st6" d="M877.5,203.3c0,3.5,6.3,6.4,14.2,6.4c7.8,0,14.2-2.8,14.2-6.4c0-3.5-6.3-6.4-14.2-6.4
					C883.8,197,877.5,199.8,877.5,203.3z"/>
			</g>
		</g>
	</g>
	<g>
		<g>
			<polygon class="st15" points="902,197.1 951.9,226.6 951.9,164.8 902,135.3 			"/>
			<polygon class="st14" points="951.9,226.6 1048.8,195.7 1048.8,133.9 951.9,164.8 			"/>
			<polygon class="st16" points="951.9,164.8 1048.8,133.9 998.9,104.4 902,135.3 			"/>
		</g>
		<g>
			<rect x="998.7" y="125.4" class="st14" width="28.3" height="8.5"/>
			<g>
				<path class="st14" d="M998.7,133.9c0,3.5,6.3,6.4,14.2,6.4c7.8,0,14.2-2.8,14.2-6.4c0-3.5-6.3-6.4-14.2-6.4
					C1005,127.6,998.7,130.4,998.7,133.9z"/>
				<path class="st16" d="M998.7,125.4c0,3.5,6.3,6.4,14.2,6.4c7.8,0,14.2-2.8,14.2-6.4s-6.3-6.4-14.2-6.4
					C1005,119.1,998.7,121.9,998.7,125.4z"/>
			</g>
		</g>
		<g>
			<rect x="973.2" y="109.5" class="st14" width="28.3" height="8.5"/>
			<g>
				<path class="st14" d="M973.2,118c0,3.5,6.3,6.4,14.2,6.4c7.8,0,14.2-2.8,14.2-6.4c0-3.5-6.3-6.4-14.2-6.4
					C979.6,111.7,973.2,114.5,973.2,118z"/>
				<path class="st16" d="M973.2,109.5c0,3.5,6.3,6.4,14.2,6.4c7.8,0,14.2-2.8,14.2-6.4c0-3.5-6.3-6.4-14.2-6.4
					C979.6,103.1,973.2,106,973.2,109.5z"/>
			</g>
		</g>
		<g>
			<rect x="946.9" y="142.3" class="st14" width="28.3" height="8.5"/>
			<g>
				<path class="st14" d="M946.9,150.8c0,3.5,6.3,6.4,14.2,6.4c7.8,0,14.2-2.8,14.2-6.4c0-3.5-6.3-6.4-14.2-6.4
					C953.3,144.5,946.9,147.3,946.9,150.8z"/>
				<path class="st16" d="M946.9,142.3c0,3.5,6.3,6.4,14.2,6.4c7.8,0,14.2-2.8,14.2-6.4c0-3.5-6.3-6.4-14.2-6.4
					C953.3,136,946.9,138.8,946.9,142.3z"/>
			</g>
		</g>
		<g>
			<rect x="922.4" y="127.5" class="st14" width="28.3" height="8.5"/>
			<g>
				<path class="st14" d="M922.4,136c0,3.5,6.3,6.4,14.2,6.4c7.8,0,14.2-2.8,14.2-6.4c0-3.5-6.3-6.4-14.2-6.4
					C928.8,129.7,922.4,132.5,922.4,136z"/>
				<path class="st16" d="M922.4,127.5c0,3.5,6.3,6.4,14.2,6.4c7.8,0,14.2-2.8,14.2-6.4c0-3.5-6.3-6.4-14.2-6.4
					C928.8,121.2,922.4,124,922.4,127.5z"/>
			</g>
		</g>
	</g>
	<g>
		<g>
			<polygon class="st11" points="851.9,151.2 901.8,180.8 901.8,119 851.9,89.5 			"/>
			<polygon class="st11" points="901.8,180.8 998.7,149.9 998.7,88.1 901.8,119 			"/>
			<polygon class="st13" points="901.8,119 998.7,88.1 948.8,58.6 851.9,89.5 			"/>
		</g>
		<g>
			<rect x="948.6" y="79.6" class="st11" width="28.3" height="8.5"/>
			<g>
				<path class="st11" d="M948.6,88.1c0,3.5,6.3,6.4,14.2,6.4c7.8,0,14.2-2.8,14.2-6.4c0-3.5-6.3-6.4-14.2-6.4
					C954.9,81.8,948.6,84.6,948.6,88.1z"/>
				<path class="st13" d="M948.6,79.6c0,3.5,6.3,6.4,14.2,6.4c7.8,0,14.2-2.8,14.2-6.4s-6.3-6.4-14.2-6.4
					C954.9,73.2,948.6,76.1,948.6,79.6z"/>
			</g>
		</g>
		<g>
			<rect x="923.1" y="63.7" class="st11" width="28.3" height="8.5"/>
			<g>
				<ellipse class="st11" cx="937.3" cy="72.2" rx="14.2" ry="6.4"/>
				<path class="st13" d="M923.1,63.7c0,3.5,6.3,6.4,14.2,6.4s14.2-2.8,14.2-6.4c0-3.5-6.3-6.4-14.2-6.4S923.1,60.2,923.1,63.7z"/>
			</g>
		</g>
		<g>
			<rect x="896.8" y="96.5" class="st11" width="28.3" height="8.5"/>
			<g>
				<path class="st11" d="M896.8,105c0,3.5,6.3,6.4,14.2,6.4c7.8,0,14.2-2.8,14.2-6.4c0-3.5-6.3-6.4-14.2-6.4
					C903.2,98.7,896.8,101.5,896.8,105z"/>
				<path class="st13" d="M896.8,96.5c0,3.5,6.3,6.4,14.2,6.4c7.8,0,14.2-2.8,14.2-6.4c0-3.5-6.3-6.4-14.2-6.4
					C903.2,90.2,896.8,93,896.8,96.5z"/>
			</g>
		</g>
		<g>
			<rect x="872.3" y="81.7" class="st11" width="28.3" height="8.5"/>
			<g>
				<path class="st11" d="M872.3,90.2c0,3.5,6.3,6.4,14.2,6.4c7.8,0,14.2-2.8,14.2-6.4s-6.3-6.4-14.2-6.4
					C878.6,83.9,872.3,86.7,872.3,90.2z"/>
				<path class="st13" d="M872.3,81.7c0,3.5,6.3,6.4,14.2,6.4c7.8,0,14.2-2.8,14.2-6.4c0-3.5-6.3-6.4-14.2-6.4
					C878.6,75.3,872.3,78.2,872.3,81.7z"/>
			</g>
		</g>
	</g>
	<g>
		<g>
			<polygon class="st2" points="755.2,182.2 805.1,211.8 805.1,150 755.2,120.5 			"/>
			<polygon class="st1" points="805.1,211.8 902,180.9 902,119.1 805.1,150 			"/>
			<polygon class="st3" points="805.1,150 902,119.1 852.1,89.6 755.2,120.5 			"/>
		</g>
		<g>
			<rect x="851.9" y="110.6" class="st1" width="28.3" height="8.5"/>
			<g>
				<path class="st1" d="M851.9,119.1c0,3.5,6.3,6.4,14.2,6.4c7.8,0,14.2-2.8,14.2-6.4c0-3.5-6.3-6.4-14.2-6.4
					C858.2,112.7,851.9,115.6,851.9,119.1z"/>
				<path class="st3" d="M851.9,110.6c0,3.5,6.3,6.4,14.2,6.4c7.8,0,14.2-2.8,14.2-6.4c0-3.5-6.3-6.4-14.2-6.4
					C858.2,104.2,851.9,107.1,851.9,110.6z"/>
			</g>
		</g>
		<g>
			<rect x="826.4" y="94.7" class="st1" width="28.3" height="8.5"/>
			<g>
				<path class="st1" d="M826.4,103.2c0,3.5,6.3,6.4,14.2,6.4c7.8,0,14.2-2.8,14.2-6.4c0-3.5-6.3-6.4-14.2-6.4
					C832.8,96.8,826.4,99.7,826.4,103.2z"/>
				<path class="st3" d="M826.4,94.7c0,3.5,6.3,6.4,14.2,6.4c7.8,0,14.2-2.8,14.2-6.4s-6.3-6.4-14.2-6.4
					C832.8,88.3,826.4,91.2,826.4,94.7z"/>
			</g>
		</g>
		<g>
			<rect x="800.2" y="127.5" class="st1" width="28.3" height="8.5"/>
			<g>
				<path class="st1" d="M800.2,136c0,3.5,6.3,6.4,14.2,6.4c7.8,0,14.2-2.8,14.2-6.4c0-3.5-6.3-6.4-14.2-6.4
					C806.5,129.7,800.2,132.5,800.2,136z"/>
				<path class="st3" d="M800.2,127.5c0,3.5,6.3,6.4,14.2,6.4c7.8,0,14.2-2.8,14.2-6.4c0-3.5-6.3-6.4-14.2-6.4
					C806.5,121.2,800.2,124,800.2,127.5z"/>
			</g>
		</g>
		<g>
			<rect x="775.6" y="112.7" class="st1" width="28.3" height="8.5"/>
			<g>
				<path class="st1" d="M775.6,121.2c0,3.5,6.3,6.4,14.2,6.4c7.8,0,14.2-2.8,14.2-6.4c0-3.5-6.3-6.4-14.2-6.4
					C782,114.8,775.6,117.7,775.6,121.2z"/>
				<path class="st3" d="M775.6,112.7c0,3.5,6.3,6.4,14.2,6.4c7.8,0,14.2-2.8,14.2-6.4c0-3.5-6.3-6.4-14.2-6.4
					C782,106.3,775.6,109.2,775.6,112.7z"/>
			</g>
		</g>
	</g>
	<g>
		<g>
			<polygon class="st8" points="796.7,107.5 846.6,137 846.6,75.2 796.7,45.7 			"/>
			<polygon class="st9" points="846.6,137 943.5,106.1 943.5,44.3 846.6,75.2 			"/>
			<polygon class="st10" points="846.6,75.2 943.5,44.3 893.7,14.8 796.7,45.7 			"/>
		</g>
		<g>
			<rect x="893.4" y="35.8" class="st9" width="28.3" height="8.5"/>
			<g>
				<path class="st9" d="M893.4,44.3c0,3.5,6.3,6.4,14.2,6.4c7.8,0,14.2-2.8,14.2-6.4c0-3.5-6.3-6.4-14.2-6.4
					C899.7,38,893.4,40.8,893.4,44.3z"/>
				<path class="st10" d="M893.4,35.8c0,3.5,6.3,6.4,14.2,6.4c7.8,0,14.2-2.8,14.2-6.4c0-3.5-6.3-6.4-14.2-6.4
					C899.7,29.5,893.4,32.3,893.4,35.8z"/>
			</g>
		</g>
		<g>
			<rect x="868" y="19.9" class="st9" width="28.3" height="8.5"/>
			<g>
				<path class="st9" d="M868,28.4c0,3.5,6.3,6.4,14.2,6.4s14.2-2.8,14.2-6.4c0-3.5-6.3-6.4-14.2-6.4S868,24.9,868,28.4z"/>
				<path class="st10" d="M868,19.9c0,3.5,6.3,6.4,14.2,6.4s14.2-2.8,14.2-6.4s-6.3-6.4-14.2-6.4S868,16.4,868,19.9z"/>
			</g>
		</g>
		<g>
			<rect x="841.7" y="52.7" class="st9" width="28.3" height="8.5"/>
			<g>
				<path class="st9" d="M841.7,61.3c0,3.5,6.3,6.4,14.2,6.4c7.8,0,14.2-2.8,14.2-6.4s-6.3-6.4-14.2-6.4
					C848,54.9,841.7,57.7,841.7,61.3z"/>
				<path class="st10" d="M841.7,52.7c0,3.5,6.3,6.4,14.2,6.4c7.8,0,14.2-2.8,14.2-6.4c0-3.5-6.3-6.4-14.2-6.4
					C848,46.4,841.7,49.2,841.7,52.7z"/>
			</g>
		</g>
		<g>
			<rect x="817.2" y="37.9" class="st9" width="28.3" height="8.5"/>
			<g>
				<path class="st9" d="M817.2,46.4c0,3.5,6.3,6.4,14.2,6.4c7.8,0,14.2-2.8,14.2-6.4c0-3.5-6.3-6.4-14.2-6.4
					C823.5,40.1,817.2,42.9,817.2,46.4z"/>
				<path class="st10" d="M817.2,37.9c0,3.5,6.3,6.4,14.2,6.4c7.8,0,14.2-2.8,14.2-6.4c0-3.5-6.3-6.4-14.2-6.4
					C823.5,31.6,817.2,34.4,817.2,37.9z"/>
			</g>
		</g>
	</g>
</g>
<g>
	<g>
		<path class="st8" d="M385.2,358.1c-6.9,0-12.8-1.1-17.9-3.3s-9-5.4-11.8-9.7c-2.8-4.3-4.2-9.5-4.2-15.6v-39.1l-8.2-1.8v-11.3h35.7
			v11.3l-8.3,1.8v39.1c0,3.2,0.6,5.9,1.7,8c1.1,2.1,2.8,3.7,4.9,4.7c2.2,1,4.8,1.5,7.9,1.5c3.2,0,5.9-0.5,8.1-1.5
			c2.2-1,3.8-2.6,4.9-4.7c1.1-2.1,1.7-4.7,1.7-8v-39.1l-8.2-1.8v-11.3h35.7v11.3l-8.3,1.8v39.1c0,6.1-1.4,11.2-4.3,15.5
			c-2.8,4.3-6.8,7.5-11.8,9.8C397.7,357,391.9,358.1,385.2,358.1z"/>
		<path class="st8" d="M430.3,357v-11.2l8.2-1.8v-53.6l-8.2-1.8v-11.3h8.2H458l31.9,51h0.3v-38l-10.4-1.8v-11.3h27.5h8.3v11.3
			l-8.3,1.8V357h-18.9l-32.5-49.9h-0.3V344l10.5,1.8V357H430.3z"/>
		<path class="st8" d="M518.4,357v-11.2l8.4-2v-53l-8.4-2.1v-11.3h8.4h28.9c7.2,0,13.5,1.7,19.1,5c5.5,3.3,9.9,7.9,13,13.8
			c3.1,5.9,4.7,12.7,4.7,20.4v1.3c0,7.7-1.6,14.5-4.7,20.4c-3.1,5.9-7.5,10.5-13,13.8c-5.5,3.3-11.9,5-19.1,5H518.4z M546,342.5h8.8
			c4,0,7.4-1,10.2-3.1c2.7-2,4.8-4.9,6.2-8.6c1.4-3.7,2.1-8,2.1-12.9v-1.3c0-4.9-0.7-9.2-2.1-12.9c-1.4-3.7-3.5-6.5-6.2-8.6
			c-2.7-2-6.1-3.1-10.2-3.1H546V342.5z"/>
		<path class="st8" d="M598.8,357v-11.2l8.3-1.8v-53.6l-8.3-1.8v-11.3h63.6v23h-14.5l-0.4-8.2h-21.2v16.4h25.4v14.7h-25.4v19h22.3
			l0.4-8.6h14.3V357H598.8z"/>
		<path class="st8" d="M670.4,357v-11.2l8.3-1.8v-53.6l-8.3-1.8v-11.3h39.2c6.3,0,11.8,1,16.4,3c4.6,2,8.2,4.9,10.7,8.6
			c2.5,3.7,3.8,8.1,3.8,13.2c0,4.7-1.3,9-3.8,13c-2.5,4-6,7.2-10.4,9.7c-4.4,2.4-9.4,3.6-15.1,3.6l-13.3-0.2V344l8.3,1.8V357H670.4z
			 M697.9,313.4h11.9c3.7,0,6.6-0.9,8.6-2.6c2-1.7,3-4.2,3-7.5c0-3.4-1-6.1-3.1-8.2c-2-2.1-5-3.1-8.8-3.1h-11.7V313.4z M720.8,357
			l-10.7-31.1l16.7-5.7l9.7,23.7l7.5,1.9V357H720.8z"/>
		<path class="st2" d="M414.5,399.4c-2.4,0-4.5-0.5-6.3-1.4c-1.9-1-3.3-2.3-4.4-4.2c-1.1-1.8-1.6-4-1.6-6.6V386
			c0-2.4,0.5-4.5,1.5-6.3c1-1.8,2.4-3.3,4.2-4.3c1.8-1,4-1.6,6.4-1.6c1.7,0,3.4,0.2,4.9,0.7c1.6,0.5,3,1.3,4.4,2.4v6.4h-4.4
			l-0.6-3.7c-0.4-0.3-0.8-0.5-1.2-0.7c-0.4-0.2-0.9-0.3-1.4-0.4c-0.5-0.1-1-0.2-1.6-0.2c-1.3,0-2.4,0.3-3.3,0.9
			c-0.9,0.6-1.7,1.5-2.2,2.6c-0.5,1.1-0.8,2.5-0.8,4.2v1.2c0,1.5,0.3,2.9,0.8,4c0.5,1.2,1.3,2.1,2.2,2.7s2.1,1,3.3,1
			c0.7,0,1.4-0.1,2.1-0.2c0.7-0.1,1.4-0.3,2-0.6l0.6-3.5h4.4v6.3c-1,0.7-2.3,1.3-3.8,1.8C418.2,399.1,416.5,399.4,414.5,399.4z"/>
		<path class="st2" d="M437.3,399.4c-1.7,0-3.3-0.3-4.7-0.9c-1.4-0.6-2.7-1.5-3.8-2.7c-1.1-1.1-1.9-2.5-2.5-4
			c-0.6-1.5-0.9-3.2-0.9-5v-0.4c0-1.8,0.3-3.4,0.9-5c0.6-1.5,1.4-2.9,2.4-4c1.1-1.1,2.3-2,3.7-2.7c1.4-0.6,3-1,4.7-1
			c1.7,0,3.3,0.3,4.7,1c1.4,0.6,2.7,1.5,3.8,2.7c1.1,1.1,1.9,2.5,2.5,4c0.6,1.5,0.9,3.2,0.9,5v0.4c0,1.8-0.3,3.5-0.9,5
			c-0.6,1.5-1.4,2.9-2.5,4c-1.1,1.1-2.3,2-3.8,2.7C440.6,399,439,399.4,437.3,399.4z M437.3,394.8c1.3,0,2.3-0.3,3.2-1
			c0.9-0.7,1.6-1.6,2-2.8c0.5-1.2,0.7-2.6,0.7-4.2v-0.4c0-1.6-0.2-3-0.7-4.2c-0.5-1.2-1.2-2.1-2-2.8c-0.9-0.7-2-1-3.2-1
			c-1.3,0-2.4,0.3-3.3,1c-0.8,0.7-1.5,1.6-1.9,2.8s-0.6,2.6-0.6,4.2v0.4c0,1.6,0.2,3,0.6,4.2c0.4,1.2,1.1,2.2,1.9,2.8
			C434.9,394.5,436,394.8,437.3,394.8z"/>
		<path class="st2" d="M450.8,399v-3.5l2.6-0.5v-16.8l-2.6-0.5v-3.5h2.6h6.1l10,15.9h0.1v-11.9l-3.3-0.5v-3.5h8.6h2.6v3.5l-2.6,0.5
			V399H469l-10.2-15.6h-0.1v11.5l3.3,0.5v3.5H450.8z"/>
		<path class="st2" d="M489.3,399.4c-2,0-3.8-0.2-5.4-0.6s-3.1-1.1-4.7-2.2v-6.5h4.6l0.5,3.3c0.4,0.4,1,0.8,1.9,1
			c0.9,0.3,1.9,0.4,3,0.4c0.8,0,1.4-0.1,1.9-0.3c0.5-0.2,0.9-0.5,1.2-0.8c0.3-0.4,0.4-0.8,0.4-1.3c0-0.5-0.1-0.9-0.4-1.3
			c-0.2-0.4-0.6-0.8-1.2-1.1c-0.6-0.3-1.3-0.7-2.3-1.1c-2.1-0.7-3.9-1.4-5.2-2.1c-1.4-0.7-2.4-1.5-3.1-2.5c-0.7-1-1-2.2-1-3.6
			c0-1.4,0.4-2.6,1.2-3.6s1.9-1.8,3.2-2.4c1.4-0.6,3-0.9,4.7-0.9c2,0,3.8,0.2,5.4,0.6c1.6,0.5,2.9,1.1,4.1,2v6h-4.4l-0.7-3.3
			c-0.4-0.2-0.9-0.4-1.7-0.5c-0.7-0.2-1.5-0.2-2.3-0.2c-0.7,0-1.3,0.1-1.9,0.3c-0.5,0.2-1,0.5-1.3,0.8c-0.3,0.4-0.5,0.8-0.5,1.4
			c0,0.4,0.1,0.8,0.4,1.2c0.3,0.3,0.7,0.7,1.4,1c0.7,0.3,1.6,0.7,2.8,1.2c2.8,0.8,5,1.9,6.4,3.1c1.5,1.2,2.2,2.9,2.2,5.1
			c0,1.5-0.4,2.7-1.2,3.8c-0.8,1-1.9,1.8-3.3,2.4C492.8,399.1,491.2,399.4,489.3,399.4z"/>
		<path class="st2" d="M505.6,399v-3.5l2.6-0.5v-16.2h-3.8l-0.2,2.7h-4.5v-7.3h23.1v7.3h-4.6l-0.1-2.7h-3.9v16.2l2.6,0.5v3.5H505.6z
			"/>
		<path class="st2" d="M523.7,399v-3.5l2.6-0.5v-16.8l-2.6-0.5v-3.5h12.2c2,0,3.7,0.3,5.1,0.9c1.4,0.6,2.6,1.5,3.3,2.7
			s1.2,2.5,1.2,4.1c0,1.5-0.4,2.8-1.2,4.1c-0.8,1.3-1.9,2.3-3.3,3c-1.4,0.8-3,1.1-4.7,1.1l-4.2-0.1v5l2.6,0.5v3.5H523.7z
			 M532.3,385.4h3.7c1.2,0,2.1-0.3,2.7-0.8c0.6-0.5,0.9-1.3,0.9-2.3c0-1.1-0.3-1.9-1-2.6c-0.6-0.6-1.5-1-2.7-1h-3.7V385.4z
			 M539.4,399l-3.3-9.7l5.2-1.8l3,7.4l2.4,0.6v3.5H539.4z"/>
		<path class="st2" d="M560.8,399.4c-2.1,0-4-0.3-5.6-1c-1.6-0.7-2.8-1.7-3.7-3c-0.9-1.3-1.3-3-1.3-4.9v-12.2l-2.6-0.5v-3.5h11.1
			v3.5l-2.6,0.5v12.2c0,1,0.2,1.8,0.5,2.5c0.4,0.7,0.9,1.1,1.5,1.5c0.7,0.3,1.5,0.5,2.5,0.5c1,0,1.8-0.2,2.5-0.5
			c0.7-0.3,1.2-0.8,1.5-1.5c0.3-0.7,0.5-1.5,0.5-2.5v-12.2l-2.6-0.5v-3.5h11.1v3.5l-2.6,0.5v12.2c0,1.9-0.4,3.5-1.3,4.8
			s-2.1,2.4-3.7,3.1C564.7,399,562.9,399.4,560.8,399.4z"/>
		<path class="st2" d="M587.1,399.4c-2.4,0-4.5-0.5-6.3-1.4c-1.9-1-3.3-2.3-4.4-4.2c-1.1-1.8-1.6-4-1.6-6.6V386
			c0-2.4,0.5-4.5,1.5-6.3c1-1.8,2.4-3.3,4.2-4.3c1.8-1,4-1.6,6.4-1.6c1.7,0,3.4,0.2,4.9,0.7c1.6,0.5,3,1.3,4.4,2.4v6.4h-4.4
			l-0.6-3.7c-0.4-0.3-0.8-0.5-1.2-0.7c-0.4-0.2-0.9-0.3-1.4-0.4s-1-0.2-1.6-0.2c-1.3,0-2.4,0.3-3.3,0.9c-0.9,0.6-1.7,1.5-2.2,2.6
			c-0.5,1.1-0.8,2.5-0.8,4.2v1.2c0,1.5,0.3,2.9,0.8,4c0.5,1.2,1.3,2.1,2.2,2.7s2.1,1,3.3,1c0.7,0,1.4-0.1,2.1-0.2
			c0.7-0.1,1.4-0.3,2-0.6l0.6-3.5h4.4v6.3c-1,0.7-2.3,1.3-3.8,1.8C590.9,399.1,589.1,399.4,587.1,399.4z"/>
		<path class="st2" d="M603.3,399v-3.5l2.6-0.5v-16.2H602l-0.2,2.7h-4.5v-7.3h23.1v7.3h-4.6l-0.1-2.7h-3.9v16.2l2.6,0.5v3.5H603.3z"
			/>
		<path class="st2" d="M621.4,399v-3.5l2.6-0.5v-16.8l-2.6-0.5v-3.5h11.1v3.5l-2.6,0.5v16.8l2.6,0.5v3.5H621.4z"/>
		<path class="st2" d="M646.1,399.4c-1.7,0-3.3-0.3-4.7-0.9c-1.4-0.6-2.7-1.5-3.8-2.7c-1.1-1.1-1.9-2.5-2.5-4
			c-0.6-1.5-0.9-3.2-0.9-5v-0.4c0-1.8,0.3-3.4,0.9-5c0.6-1.5,1.4-2.9,2.4-4c1.1-1.1,2.3-2,3.7-2.7c1.4-0.6,3-1,4.7-1
			c1.7,0,3.3,0.3,4.7,1c1.4,0.6,2.7,1.5,3.8,2.7c1.1,1.1,1.9,2.5,2.5,4c0.6,1.5,0.9,3.2,0.9,5v0.4c0,1.8-0.3,3.5-0.9,5
			c-0.6,1.5-1.4,2.9-2.5,4c-1.1,1.1-2.3,2-3.8,2.7C649.3,399,647.7,399.4,646.1,399.4z M646.1,394.8c1.3,0,2.3-0.3,3.2-1
			c0.9-0.7,1.6-1.6,2-2.8c0.5-1.2,0.7-2.6,0.7-4.2v-0.4c0-1.6-0.2-3-0.7-4.2c-0.5-1.2-1.2-2.1-2-2.8c-0.9-0.7-2-1-3.2-1
			c-1.3,0-2.4,0.3-3.3,1c-0.8,0.7-1.5,1.6-1.9,2.8s-0.6,2.6-0.6,4.2v0.4c0,1.6,0.2,3,0.6,4.2c0.4,1.2,1.1,2.2,1.9,2.8
			C643.7,394.5,644.7,394.8,646.1,394.8z"/>
		<path class="st2" d="M659.6,399v-3.5l2.6-0.5v-16.8l-2.6-0.5v-3.5h2.6h6.1l10,15.9h0.1v-11.9l-3.3-0.5v-3.5h8.6h2.6v3.5l-2.6,0.5
			V399h-5.9l-10.2-15.6h-0.1v11.5l3.3,0.5v3.5H659.6z"/>
		<path class="st9" d="M342.1,483l-6-23.3l-1.9-0.1v-1.5h6.7v1.5l-2.7,0.2l4,16.2l0.9,3.6h0.1l1-3.6l5.7-17.9h1.9l5.7,17.9l1,3.7
			h0.1l1-3.7l3.9-16.2l-2.8-0.2v-1.5h6.6v1.5l-1.8,0.1l-5.9,23.3h-2l-6-19.1l-0.8-2.5h-0.1l-0.7,2.5l-6,19.1H342.1z"/>
		<path class="st9" d="M378,483.4c-1.6,0-3-0.4-4.2-1.2c-1.2-0.8-2.2-1.8-2.8-3.2s-1-2.9-1-4.7v-0.9c0-1.8,0.3-3.3,1-4.7
			c0.7-1.4,1.6-2.5,2.8-3.3c1.2-0.8,2.5-1.2,3.9-1.2c1.5,0,2.8,0.3,3.9,1c1.1,0.7,1.9,1.6,2.5,2.7c0.6,1.2,0.9,2.6,0.9,4.2v1.7
			h-12.8l0,0.8c0,1.4,0.3,2.6,0.8,3.7c0.5,1.1,1.2,1.9,2.1,2.5c0.9,0.6,1.9,0.9,3.1,0.9c1.2,0,2.2-0.2,3.1-0.6
			c0.9-0.4,1.7-0.9,2.3-1.5l0.9,1.4c-0.7,0.7-1.6,1.3-2.6,1.7C380.7,483.1,379.4,483.4,378,483.4z M372.2,472.1h10.6v-0.5
			c0-1.1-0.2-2.1-0.6-2.9s-1-1.5-1.8-2c-0.8-0.5-1.7-0.7-2.8-0.7c-1,0-1.9,0.3-2.6,0.8c-0.8,0.5-1.4,1.3-1.9,2.2
			c-0.5,0.9-0.8,2-0.9,3.1L372.2,472.1z"/>
		<path class="st9" d="M402.4,483.4c-1.8,0-3.1-0.5-4.1-1.4c-1-0.9-1.5-2.2-1.5-3.8c0-1.1,0.3-2.1,1-3c0.7-0.9,1.6-1.5,2.8-2
			c1.2-0.5,2.7-0.7,4.3-0.7h3.8v-2.1c0-1.3-0.4-2.4-1.2-3.2s-2-1.2-3.6-1.2c-0.9,0-1.7,0.1-2.4,0.4c-0.7,0.3-1.3,0.7-1.9,1.1
			l-0.2,2.8h-1.7v-3.9c0.8-0.7,1.7-1.2,2.7-1.6c1-0.4,2.2-0.6,3.5-0.6c2.2,0,3.9,0.5,5,1.6c1.2,1.1,1.8,2.6,1.8,4.5v8.9
			c0,0.4,0,0.7,0,1.1c0,0.4,0.1,0.7,0.1,1.1l2.2,0.1v1.5h-4c-0.1-0.7-0.2-1.2-0.3-1.6c-0.1-0.4-0.1-0.9-0.1-1.4
			c-0.7,1-1.6,1.8-2.7,2.4C405,483,403.7,483.4,402.4,483.4z M402.6,481.6c1.3,0,2.5-0.3,3.6-1c1.1-0.7,2-1.6,2.5-2.7V474h-3.8
			c-1.9,0-3.4,0.4-4.4,1.2c-1.1,0.8-1.6,1.8-1.6,3c0,1,0.3,1.8,1,2.4S401.5,481.6,402.6,481.6z"/>
		<path class="st9" d="M415.8,483v-1.5l2.8-0.2v-15.1l-2.8-0.2v-1.5h4.6l0.2,2.8l0,0.5c0.5-1.2,1.2-2,2.1-2.7c0.9-0.6,2-1,3.2-1
			c0.3,0,0.6,0,1,0.1c0.3,0.1,0.6,0.1,0.8,0.2l-0.3,1.9l-1.9-0.1c-1.3,0-2.4,0.3-3.2,1.1c-0.8,0.8-1.4,1.8-1.7,3.1v10.9l2.8,0.2v1.5
			H415.8z"/>
		<path class="st9" d="M438.4,483.4c-1.6,0-3-0.4-4.2-1.2c-1.2-0.8-2.2-1.8-2.8-3.2s-1-2.9-1-4.7v-0.9c0-1.8,0.3-3.3,1-4.7
			c0.7-1.4,1.6-2.5,2.8-3.3c1.2-0.8,2.5-1.2,3.9-1.2c1.5,0,2.8,0.3,3.9,1c1.1,0.7,1.9,1.6,2.5,2.7c0.6,1.2,0.9,2.6,0.9,4.2v1.7
			h-12.8l0,0.8c0,1.4,0.3,2.6,0.8,3.7c0.5,1.1,1.2,1.9,2.1,2.5c0.9,0.6,1.9,0.9,3.1,0.9c1.2,0,2.2-0.2,3.1-0.6
			c0.9-0.4,1.7-0.9,2.3-1.5l0.9,1.4c-0.7,0.7-1.6,1.3-2.6,1.7C441,483.1,439.8,483.4,438.4,483.4z M432.6,472.1h10.6v-0.5
			c0-1.1-0.2-2.1-0.6-2.9s-1-1.5-1.8-2c-0.8-0.5-1.7-0.7-2.8-0.7c-1,0-1.9,0.3-2.6,0.8c-0.8,0.5-1.4,1.3-1.9,2.2
			c-0.5,0.9-0.8,2-0.9,3.1L432.6,472.1z"/>
		<path class="st9" d="M465,483.4c-1.5,0-2.9-0.4-4.1-1.2c-1.2-0.8-2.1-1.9-2.8-3.2c-0.7-1.4-1-3-1-4.8v-0.7c0-1.8,0.3-3.4,1-4.8
			c0.6-1.4,1.6-2.5,2.7-3.3c1.2-0.8,2.6-1.2,4.1-1.2c1.4,0,2.7,0.3,3.8,0.8c1.1,0.5,2.1,1.2,2.8,2.1l0,4.2h-1.7l-0.3-3.5
			c-0.6-0.6-1.2-1.1-2-1.4c-0.8-0.3-1.6-0.5-2.6-0.5c-1.2,0-2.2,0.3-3.1,1c-0.9,0.6-1.6,1.5-2,2.7c-0.5,1.1-0.7,2.4-0.7,3.9v0.7
			c0,1.5,0.2,2.8,0.7,4s1.2,2,2,2.6c0.9,0.6,1.9,0.9,3.1,0.9c1.4,0,2.5-0.4,3.5-1.1c0.9-0.7,1.5-1.8,1.7-3.2h1.8l0,0.1
			c-0.1,1.2-0.4,2.2-1,3.1c-0.6,0.9-1.4,1.6-2.4,2.1C467.5,483.1,466.4,483.4,465,483.4z"/>
		<path class="st9" d="M483.2,483.4c-1.9,0-3.4-0.7-4.5-2c-1.1-1.3-1.6-3.4-1.6-6.2v-9l-2.3-0.2v-1.5h2.3h2.1v10.7
			c0,2.3,0.4,3.9,1.1,4.9c0.7,1,1.8,1.5,3.2,1.5c1.6,0,2.8-0.4,3.7-1.1c0.9-0.7,1.5-1.7,1.8-3v-11.3l-2.6-0.2v-1.5h2.6h2.1v16.8
			l2.5,0.2v1.5h-4.3l-0.2-3c-0.6,1.1-1.4,1.9-2.3,2.5C485.7,483.1,484.6,483.4,483.2,483.4z"/>
		<path class="st9" d="M496.2,483v-1.5l2.8-0.2v-15.1l-2.8-0.2v-1.5h4.6l0.2,2.8l0,0.5c0.5-1.2,1.2-2,2.1-2.7c0.9-0.6,2-1,3.2-1
			c0.3,0,0.6,0,1,0.1c0.3,0.1,0.6,0.1,0.8,0.2l-0.3,1.9l-1.9-0.1c-1.3,0-2.4,0.3-3.2,1.1c-0.8,0.8-1.4,1.8-1.7,3.1v10.9l2.8,0.2v1.5
			H496.2z"/>
		<path class="st9" d="M510.5,483v-1.5l2.8-0.2v-15.1l-2.8-0.2v-1.5h4.6l0.2,2.8l0,0.5c0.5-1.2,1.2-2,2.1-2.7c0.9-0.6,2-1,3.2-1
			c0.3,0,0.6,0,1,0.1c0.3,0.1,0.6,0.1,0.8,0.2l-0.3,1.9l-1.9-0.1c-1.3,0-2.4,0.3-3.2,1.1c-0.8,0.8-1.4,1.8-1.7,3.1v10.9l2.8,0.2v1.5
			H510.5z"/>
		<path class="st9" d="M533.1,483.4c-1.6,0-3-0.4-4.2-1.2c-1.2-0.8-2.2-1.8-2.8-3.2s-1-2.9-1-4.7v-0.9c0-1.8,0.3-3.3,1-4.7
			c0.7-1.4,1.6-2.5,2.8-3.3c1.2-0.8,2.5-1.2,3.9-1.2c1.5,0,2.8,0.3,3.9,1c1.1,0.7,1.9,1.6,2.5,2.7c0.6,1.2,0.9,2.6,0.9,4.2v1.7
			h-12.8l0,0.8c0,1.4,0.3,2.6,0.8,3.7c0.5,1.1,1.2,1.9,2.1,2.5c0.9,0.6,1.9,0.9,3.1,0.9c1.2,0,2.2-0.2,3.1-0.6
			c0.9-0.4,1.7-0.9,2.3-1.5l0.9,1.4c-0.7,0.7-1.6,1.3-2.6,1.7C535.7,483.1,534.5,483.4,533.1,483.4z M527.3,472.1h10.6v-0.5
			c0-1.1-0.2-2.1-0.6-2.9s-1-1.5-1.8-2c-0.8-0.5-1.7-0.7-2.8-0.7c-1,0-1.9,0.3-2.6,0.8c-0.8,0.5-1.4,1.3-1.9,2.2
			c-0.5,0.9-0.8,2-0.9,3.1L527.3,472.1z"/>
		<path class="st9" d="M543.1,483v-1.5l2.8-0.2v-15.1l-2.8-0.2v-1.5h4.6l0.2,3.3c0.6-1.2,1.4-2.1,2.4-2.7c1-0.6,2.2-1,3.6-1
			c2,0,3.5,0.6,4.6,1.8c1,1.2,1.6,3.1,1.6,5.8v9.5l2.8,0.2v1.5h-7.6v-1.5l2.8-0.2v-9.5c0-2.1-0.4-3.7-1.2-4.5
			c-0.8-0.9-1.9-1.3-3.4-1.3c-1.5,0-2.7,0.4-3.6,1.3s-1.5,2-1.8,3.3v10.7l2.8,0.2v1.5H543.1z"/>
		<path class="st9" d="M572.6,483.3c-1.3,0-2.3-0.4-3-1.2c-0.7-0.8-1.1-2.1-1.1-3.9v-12.1h-3.2v-1.7h3.2v-4.8h2.1v4.8h4.3v1.7h-4.3
			v12.1c0,1.2,0.2,2.1,0.7,2.7c0.4,0.5,1,0.8,1.8,0.8c0.4,0,0.8,0,1.1-0.1c0.4-0.1,0.8-0.1,1.2-0.2l0.3,1.5
			c-0.4,0.1-0.9,0.2-1.4,0.3C573.6,483.3,573.1,483.3,572.6,483.3z"/>
		<path class="st9" d="M578.1,483v-1.5l2.8-0.2v-23.2l-2.8-0.2v-1.5h4.8v25l2.8,0.2v1.5H578.1z"/>
		<path class="st9" d="M592.4,490.5c-0.2,0-0.5,0-0.9-0.1c-0.3-0.1-0.6-0.1-0.8-0.1l0.2-1.7c0.2,0,0.4,0,0.7,0.1s0.5,0,0.6,0
			c0.9,0,1.6-0.3,2.1-0.9c0.5-0.6,1-1.4,1.4-2.5l1-2.5l-6.8-16.6l-2-0.1v-1.5h6.5v1.5l-2.3,0.2l4.8,11.9l0.8,2.1h0.1l5.3-14
			l-2.4-0.2v-1.5h6.5v1.5l-2,0.1l-7.6,19.8c-0.3,0.9-0.7,1.6-1.2,2.3s-1,1.2-1.6,1.6C594.2,490.3,593.4,490.5,592.4,490.5z"/>
		<path class="st9" d="M624.3,483l-5.2-16.9l-2.1-0.1v-1.5h6.6v1.5l-2.4,0.2l3.2,10.8l0.9,3h0.1l1-3l4.2-12.5h1.8l4.2,12.5l1.1,3.2
			l0.1,0l1-3.2l3.2-10.8l-2.4-0.2v-1.5h6.5v1.5l-2.1,0.1l-5.1,16.9h-2l-4.3-12.6l-0.9-3l-0.1,0l-0.9,3l-4.4,12.6H624.3z"/>
		<path class="st9" d="M656.8,483.4c-1.7,0-3.1-0.4-4.3-1.2s-2.2-1.9-2.9-3.3s-1-3-1-4.8v-0.6c0-1.8,0.3-3.4,1-4.8
			c0.7-1.4,1.6-2.5,2.9-3.3c1.2-0.8,2.7-1.2,4.3-1.2c1.7,0,3.1,0.4,4.3,1.2c1.2,0.8,2.2,1.9,2.9,3.3s1,3,1,4.8v0.6
			c0,1.8-0.3,3.4-1,4.8c-0.7,1.4-1.6,2.5-2.9,3.3S658.4,483.4,656.8,483.4z M656.8,481.7c1.3,0,2.4-0.3,3.3-1
			c0.9-0.7,1.6-1.6,2.1-2.7c0.5-1.2,0.7-2.4,0.7-3.9v-0.6c0-1.4-0.2-2.7-0.7-3.8c-0.5-1.2-1.2-2.1-2.1-2.7c-0.9-0.7-2-1-3.3-1
			s-2.4,0.3-3.3,1c-0.9,0.7-1.6,1.6-2.1,2.7c-0.5,1.2-0.7,2.4-0.7,3.8v0.6c0,1.4,0.2,2.7,0.7,3.9c0.5,1.1,1.2,2.1,2.1,2.7
			C654.4,481.3,655.5,481.7,656.8,481.7z"/>
		<path class="st9" d="M667.9,483v-1.5l2.8-0.2v-15.1l-2.8-0.2v-1.5h4.6l0.2,2.8l0,0.5c0.5-1.2,1.2-2,2.1-2.7c0.9-0.6,2-1,3.2-1
			c0.3,0,0.6,0,1,0.1c0.3,0.1,0.6,0.1,0.8,0.2l-0.3,1.9l-1.9-0.1c-1.3,0-2.4,0.3-3.2,1.1c-0.8,0.8-1.4,1.8-1.7,3.1v10.9l2.8,0.2v1.5
			H667.9z"/>
		<path class="st9" d="M681.9,483v-1.5l2.8-0.2v-23.2l-2.8-0.2v-1.5h4.8v25l2.8,0.2v1.5H681.9z M686.5,477.3l-0.7-1.7l9.1-9.4l0-0.1
			l-2-0.1v-1.5h6.6v1.5l-2.2,0.2L686.5,477.3z M693.8,483v-1.5l2-0.1l0-0.1l-6.1-8.3l1.2-1.6l7.5,9.8l2.3,0.2v1.5H693.8z"/>
		<path class="st9" d="M702.9,483v-1.5l2.8-0.2v-15.1l-2.8-0.2v-1.5h4.8v16.8l2.8,0.2v1.5H702.9z M705.5,459.3v-3h2.3v3H705.5z"/>
		<path class="st9" d="M713.7,483v-1.5l2.8-0.2v-15.1l-2.8-0.2v-1.5h4.6l0.2,3.3c0.6-1.2,1.4-2.1,2.4-2.7c1-0.6,2.2-1,3.6-1
			c2,0,3.5,0.6,4.6,1.8c1,1.2,1.6,3.1,1.6,5.8v9.5l2.8,0.2v1.5h-7.6v-1.5l2.8-0.2v-9.5c0-2.1-0.4-3.7-1.2-4.5
			c-0.8-0.9-1.9-1.3-3.4-1.3c-1.5,0-2.7,0.4-3.6,1.3s-1.5,2-1.8,3.3v10.7l2.8,0.2v1.5H713.7z"/>
		<path class="st9" d="M744.2,490.5c-0.9,0-1.9-0.1-2.9-0.3c-1-0.2-1.9-0.5-2.6-0.9l0.5-1.7c0.7,0.4,1.5,0.6,2.3,0.8
			c0.8,0.2,1.7,0.3,2.6,0.3c1.8,0,3.1-0.5,4-1.6c0.9-1,1.3-2.5,1.3-4.3v-2.3c-0.6,0.9-1.4,1.6-2.4,2.1c-1,0.5-2.1,0.8-3.4,0.8
			c-1.5,0-2.8-0.4-3.8-1.1c-1.1-0.8-1.9-1.8-2.4-3.2c-0.6-1.4-0.9-3-0.9-4.8v-0.4c0-2,0.3-3.7,0.9-5.1c0.6-1.5,1.4-2.6,2.5-3.4
			c1.1-0.8,2.3-1.2,3.8-1.2c1.3,0,2.5,0.3,3.4,0.9c1,0.6,1.8,1.4,2.4,2.4l0.2-2.9h1.7v18.3c0,1.6-0.3,3-0.9,4.1
			c-0.6,1.2-1.4,2-2.5,2.7C747.1,490.2,745.8,490.5,744.2,490.5z M744.1,481.6c1.3,0,2.5-0.3,3.3-0.9s1.6-1.5,2-2.5v-8.5
			c-0.4-1.1-1.1-2-1.9-2.7c-0.8-0.7-2-1.1-3.4-1.1c-1.2,0-2.2,0.3-3,1c-0.8,0.7-1.4,1.6-1.8,2.8c-0.4,1.2-0.6,2.6-0.6,4.2v0.4
			c0,2.2,0.5,4,1.4,5.3C741,480.9,742.3,481.6,744.1,481.6z M751.1,466.3l-0.7-1.8h3.5v1.5L751.1,466.3z"/>
		<path class="st9" d="M454.1,525.4c-1.7,0-3.1-0.4-4.3-1.2c-1.2-0.8-2.2-1.9-2.9-3.3s-1-3-1-4.8v-0.6c0-1.8,0.3-3.4,1-4.8
			c0.7-1.4,1.6-2.5,2.9-3.3c1.2-0.8,2.7-1.2,4.3-1.2c1.7,0,3.1,0.4,4.3,1.2c1.2,0.8,2.2,1.9,2.9,3.3s1,3,1,4.8v0.6
			c0,1.8-0.3,3.4-1,4.8c-0.7,1.4-1.6,2.5-2.9,3.3C457.2,525,455.8,525.4,454.1,525.4z M454.1,523.7c1.3,0,2.4-0.3,3.3-1
			c0.9-0.7,1.6-1.6,2.1-2.7c0.5-1.2,0.7-2.4,0.7-3.9v-0.6c0-1.4-0.2-2.7-0.7-3.8c-0.5-1.2-1.2-2.1-2.1-2.7c-0.9-0.7-2-1-3.3-1
			c-1.3,0-2.4,0.3-3.3,1c-0.9,0.7-1.6,1.6-2.1,2.7c-0.5,1.2-0.7,2.4-0.7,3.8v0.6c0,1.4,0.2,2.7,0.7,3.9c0.5,1.1,1.2,2.1,2.1,2.7
			C451.7,523.3,452.8,523.7,454.1,523.7z"/>
		<path class="st9" d="M465.3,525v-1.5l2.8-0.2v-15.1l-2.8-0.2v-1.5h4.6l0.2,3.3c0.6-1.2,1.4-2.1,2.4-2.7c1-0.6,2.2-1,3.6-1
			c2,0,3.5,0.6,4.6,1.8c1,1.2,1.6,3.1,1.6,5.8v9.5l2.8,0.2v1.5h-7.6v-1.5l2.8-0.2v-9.5c0-2.1-0.4-3.7-1.2-4.5
			c-0.8-0.9-1.9-1.3-3.4-1.3c-1.5,0-2.7,0.4-3.6,1.3s-1.5,2-1.8,3.3v10.7l2.8,0.2v1.5H465.3z"/>
		<path class="st9" d="M503.2,525.3c-1.3,0-2.3-0.4-3-1.2c-0.7-0.8-1.1-2.1-1.1-3.9v-12.1h-3.2v-1.7h3.2v-4.8h2.1v4.8h4.3v1.7h-4.3
			v12.1c0,1.2,0.2,2.1,0.7,2.7s1,0.8,1.8,0.8c0.4,0,0.8,0,1.1-0.1c0.4-0.1,0.8-0.1,1.2-0.2l0.3,1.5c-0.4,0.1-0.9,0.2-1.4,0.3
			C504.3,525.3,503.7,525.3,503.2,525.3z"/>
		<path class="st9" d="M508.5,525v-1.5l2.8-0.2v-23.2l-2.8-0.2v-1.5h4.8v11.4c0.6-1.1,1.4-2,2.4-2.6s2.2-0.9,3.6-0.9
			c1.9,0,3.4,0.6,4.5,1.8c1,1.2,1.6,3.1,1.6,5.6v9.7l2.8,0.2v1.5h-7.6v-1.5l2.8-0.2v-9.7c0-2-0.4-3.5-1.2-4.3
			c-0.8-0.9-1.9-1.3-3.3-1.3c-1.5,0-2.7,0.4-3.6,1.3c-0.9,0.8-1.6,1.9-1.9,3.3v10.8l2.8,0.2v1.5H508.5z"/>
		<path class="st9" d="M531,525v-1.5l2.8-0.2v-15.1L531,508v-1.5h4.8v16.8l2.8,0.2v1.5H531z M533.5,501.3v-3h2.3v3H533.5z"/>
		<path class="st9" d="M548.9,525.4c-1.3,0-2.5-0.2-3.6-0.5c-1.1-0.3-2.2-0.9-3.1-1.5l0-3.8h1.7l0.3,2.7c0.7,0.5,1.4,0.9,2.2,1.1
			c0.8,0.2,1.7,0.3,2.6,0.3c1.5,0,2.7-0.3,3.5-1c0.8-0.7,1.2-1.5,1.2-2.4c0-0.9-0.4-1.6-1.1-2.3c-0.7-0.7-2-1.2-3.9-1.6
			c-2.2-0.5-3.8-1.1-4.8-1.9c-1-0.8-1.5-1.9-1.5-3.3c0-0.9,0.3-1.8,0.8-2.5c0.5-0.8,1.3-1.3,2.2-1.8s2.1-0.7,3.4-0.7
			c1.4,0,2.5,0.2,3.5,0.6c1,0.4,1.9,0.9,2.6,1.6l0.1,3.8h-1.7l-0.2-2.7c-0.5-0.5-1.1-0.9-1.8-1.1s-1.5-0.4-2.5-0.4
			c-1.4,0-2.5,0.3-3.2,1c-0.8,0.6-1.1,1.4-1.1,2.2c0,0.6,0.1,1,0.4,1.5c0.2,0.4,0.7,0.8,1.3,1.1c0.7,0.3,1.6,0.6,2.9,0.9
			c2.3,0.5,4,1.2,5,2.1c1,0.9,1.6,2.1,1.6,3.5c0,1.5-0.6,2.7-1.8,3.7C552.8,524.9,551.1,525.4,548.9,525.4z"/>
		<path class="st9" d="M567.2,532.1v-1.5l2.7-0.2v-22.1l-2.8-0.2v-1.5h4.5l0.3,2.8c0.6-1,1.4-1.8,2.4-2.3c1-0.6,2.1-0.8,3.4-0.8
			c1.5,0,2.8,0.4,3.8,1.2c1.1,0.8,1.9,1.9,2.4,3.4c0.6,1.5,0.8,3.2,0.8,5.1v0.4c0,1.8-0.3,3.4-0.8,4.8c-0.6,1.4-1.4,2.4-2.4,3.2
			s-2.3,1.1-3.8,1.1c-1.3,0-2.5-0.2-3.4-0.7c-1-0.5-1.8-1.2-2.4-2.1v7.8l2.9,0.2v1.5H567.2z M577.3,523.7c1.8,0,3.1-0.7,4.1-2
			c0.9-1.3,1.4-3.1,1.4-5.4v-0.4c0-1.6-0.2-3-0.6-4.2c-0.4-1.2-1-2.1-1.9-2.8s-1.8-1-3-1c-1.4,0-2.5,0.3-3.4,1s-1.5,1.5-1.9,2.6v8.8
			c0.4,1,1.1,1.8,2,2.4C574.8,523.4,575.9,523.7,577.3,523.7z"/>
		<path class="st9" d="M593.6,525.4c-1.8,0-3.1-0.5-4.1-1.4c-1-0.9-1.5-2.2-1.5-3.8c0-1.1,0.3-2.1,1-3c0.7-0.9,1.6-1.5,2.8-2
			c1.2-0.5,2.7-0.7,4.3-0.7h3.8v-2.1c0-1.3-0.4-2.4-1.2-3.2s-2-1.2-3.6-1.2c-0.9,0-1.7,0.1-2.4,0.4c-0.7,0.3-1.3,0.7-1.9,1.1
			l-0.2,2.8H589v-3.9c0.8-0.7,1.7-1.2,2.7-1.6c1-0.4,2.2-0.6,3.5-0.6c2.2,0,3.9,0.5,5,1.6s1.8,2.6,1.8,4.5v8.9c0,0.4,0,0.7,0,1.1
			c0,0.4,0.1,0.7,0.1,1.1l2.2,0.1v1.5h-4c-0.1-0.7-0.2-1.2-0.3-1.6c-0.1-0.4-0.1-0.9-0.1-1.4c-0.7,1-1.6,1.8-2.7,2.4
			S594.9,525.4,593.6,525.4z M593.8,523.6c1.3,0,2.5-0.3,3.6-1c1.1-0.7,2-1.6,2.5-2.7V516h-3.8c-1.9,0-3.4,0.4-4.4,1.2
			c-1.1,0.8-1.6,1.8-1.6,3c0,1,0.3,1.8,1,2.4S592.6,523.6,593.8,523.6z"/>
		<path class="st9" d="M614.7,532.5c-0.9,0-1.9-0.1-2.9-0.3c-1-0.2-1.9-0.5-2.6-0.9l0.5-1.7c0.7,0.4,1.5,0.6,2.3,0.8
			c0.8,0.2,1.7,0.3,2.6,0.3c1.8,0,3.1-0.5,4-1.6c0.9-1,1.3-2.5,1.3-4.3v-2.3c-0.6,0.9-1.4,1.6-2.4,2.1c-1,0.5-2.1,0.8-3.4,0.8
			c-1.5,0-2.8-0.4-3.8-1.1s-1.9-1.8-2.4-3.2c-0.6-1.4-0.9-3-0.9-4.8v-0.4c0-2,0.3-3.7,0.9-5.1c0.6-1.5,1.4-2.6,2.5-3.4
			c1.1-0.8,2.3-1.2,3.8-1.2c1.3,0,2.5,0.3,3.4,0.9c1,0.6,1.8,1.4,2.4,2.4l0.2-2.9h1.7v18.3c0,1.6-0.3,3-0.9,4.1
			c-0.6,1.2-1.4,2-2.5,2.7C617.6,532.2,616.3,532.5,614.7,532.5z M614.6,523.6c1.3,0,2.5-0.3,3.3-0.9s1.6-1.5,2-2.5v-8.5
			c-0.4-1.1-1.1-2-1.9-2.7s-2-1.1-3.4-1.1c-1.2,0-2.2,0.3-3,1s-1.4,1.6-1.8,2.8c-0.4,1.2-0.6,2.6-0.6,4.2v0.4c0,2.2,0.5,4,1.4,5.3
			C611.5,522.9,612.8,523.6,614.6,523.6z M621.6,508.3l-0.7-1.8h3.5v1.5L621.6,508.3z"/>
		<path class="st9" d="M635,525.4c-1.6,0-3-0.4-4.2-1.2c-1.2-0.8-2.2-1.8-2.8-3.2s-1-2.9-1-4.7v-0.9c0-1.8,0.3-3.3,1-4.7
			c0.7-1.4,1.6-2.5,2.8-3.3c1.2-0.8,2.5-1.2,3.9-1.2c1.5,0,2.8,0.3,3.9,1c1.1,0.7,1.9,1.6,2.5,2.7c0.6,1.2,0.9,2.6,0.9,4.2v1.7
			h-12.8l0,0.8c0,1.4,0.3,2.6,0.8,3.7c0.5,1.1,1.2,1.9,2.1,2.5s1.9,0.9,3.1,0.9c1.2,0,2.2-0.2,3.1-0.6c0.9-0.4,1.7-0.9,2.3-1.5
			l0.9,1.4c-0.7,0.7-1.6,1.3-2.6,1.7C637.6,525.1,636.4,525.4,635,525.4z M629.2,514.1h10.6v-0.5c0-1.1-0.2-2.1-0.6-2.9
			s-1-1.5-1.8-2c-0.8-0.5-1.7-0.7-2.8-0.7c-1,0-1.9,0.3-2.6,0.8c-0.8,0.5-1.4,1.3-1.9,2.2c-0.5,0.9-0.8,2-0.9,3.1L629.2,514.1z"/>
	</g>
</g>
</svg>
